{"glyphs":{":":{"x_min":0,"x_max":171,"ha":171,"o":"m 160 55 q 160 32 144 16 q 129 0 106 0 q 83 0 67 16 q 51 32 51 55 q 51 78 67 94 q 83 109 106 109 q 129 109 144 94 q 160 78 160 55 z m 281 293 q 281 270 265 254 q 249 238 226 238 q 203 238 187 254 q 171 270 171 293 q 171 316 187 332 q 203 347 226 347 q 249 347 265 332 q 281 316 281 293 z"},"$":{"x_min":0,"x_max":565,"ha":565,"o":"m 173 -64 q 164 -78 156 -75 q 149 -72 144 -60 q 140 -48 140 -30 q 141 -11 150 7 q 151 9 154 14 q 157 20 162 28 q 135 50 121 82 q 107 114 106 146 q 106 178 119 206 q 132 233 159 246 q 174 253 192 254 q 210 254 224 250 q 238 247 244 240 q 250 233 241 225 q 214 200 206 165 q 197 130 208 99 l 338 295 q 324 313 314 332 q 305 352 302 373 q 300 394 307 417 q 314 440 334 466 q 367 510 410 532 q 454 555 517 564 l 533 588 q 539 597 554 604 q 569 610 582 611 q 594 612 600 606 q 606 601 594 588 l 581 569 q 591 570 602 570 q 612 570 623 570 q 651 570 667 561 q 683 552 668 525 q 659 509 640 491 q 622 473 599 466 q 588 462 575 461 q 562 460 552 462 q 542 464 538 469 q 534 474 541 483 q 545 488 552 494 q 558 501 563 508 q 568 514 570 520 q 573 525 569 528 q 559 530 554 530 q 533 498 502 452 q 472 406 437 351 q 457 328 478 302 q 499 277 511 248 q 523 219 520 185 q 518 151 491 111 q 442 39 378 15 q 315 -9 241 -3 q 233 -2 226 -1 q 220 0 214 2 q 203 -15 193 -31 q 183 -47 173 -64 z m 402 97 q 415 119 418 139 q 420 159 414 178 q 408 197 396 214 q 385 232 372 250 q 340 202 308 152 q 277 102 245 52 q 249 49 259 45 q 276 38 295 36 q 314 35 332 40 q 351 45 369 59 q 387 73 402 97 z m 402 467 q 390 448 392 430 q 393 412 404 394 l 494 529 q 433 517 402 467 z"},"?":{"x_min":0,"x_max":360,"ha":360,"o":"m 189 225 q 204 246 228 260 q 253 275 281 292 q 309 309 337 332 q 365 355 388 393 q 410 428 406 455 q 402 482 384 494 q 365 507 336 503 q 307 499 279 471 q 253 446 252 416 q 250 386 279 365 q 288 358 280 342 q 271 327 255 314 q 239 301 221 296 q 203 292 194 307 q 182 326 180 350 q 178 373 185 398 q 192 422 208 446 q 225 471 249 492 q 286 524 326 536 q 365 548 400 544 q 436 540 462 522 q 489 503 499 475 q 509 447 498 410 q 488 373 449 332 q 427 308 395 290 q 363 273 330 257 q 297 241 266 226 q 236 211 217 192 q 205 180 195 178 q 185 177 180 183 q 176 189 178 200 q 179 211 189 225 z m 160 55 q 160 32 144 16 q 129 0 106 0 q 83 0 67 16 q 51 32 51 55 q 51 78 67 94 q 83 109 106 109 q 129 109 144 94 q 160 78 160 55 z"},"<":{"x_min":0,"x_max":358,"ha":358,"o":"m 257 156 q 262 148 258 132 q 255 115 248 99 q 241 83 232 74 q 224 64 219 71 l 180 132 q 171 146 173 164 q 175 181 184 198 q 194 215 210 231 q 225 247 243 258 q 268 273 285 282 q 302 291 314 298 q 327 304 337 309 q 347 314 358 321 q 371 328 372 318 q 373 308 366 292 q 360 277 347 260 q 334 243 320 237 q 297 226 274 212 q 252 198 229 190 q 237 183 244 174 q 250 165 257 156 z"},"'":{"x_min":0,"x_max":7,"ha":7,"o":"m 151 419 q 181 458 200 495 q 218 532 234 566 q 245 588 265 594 q 285 601 300 595 q 316 589 320 572 q 324 556 304 532 q 280 503 254 475 q 227 447 192 414 q 175 398 164 393 q 153 388 148 390 q 142 392 142 400 q 143 408 151 419 z"},"=":{"x_min":0,"x_max":398,"ha":398,"o":"m 335 251 q 368 251 392 242 q 415 233 426 222 q 436 211 433 202 q 430 193 409 193 l 265 193 q 239 193 220 202 q 202 211 194 222 q 185 233 188 242 q 192 251 210 251 z m 285 163 q 318 163 342 154 q 365 145 376 134 q 387 124 384 115 q 380 106 360 106 l 216 106 q 190 106 171 115 q 152 124 144 134 q 136 145 139 154 q 142 163 160 163 z"},"a":{"x_min":0,"x_max":405,"ha":405,"o":"m 89 240 q 135 285 177 311 q 219 337 255 346 q 291 356 319 350 q 347 345 365 329 q 376 340 390 346 q 404 352 416 352 l 445 352 q 459 352 462 342 q 464 333 453 319 q 449 314 434 295 q 419 276 400 250 q 382 223 362 194 q 342 166 328 142 q 309 112 306 98 q 304 85 312 83 q 322 80 346 96 q 369 112 398 138 q 426 164 455 194 q 484 224 505 249 q 518 265 528 270 q 537 274 542 270 q 546 265 545 255 q 544 245 536 233 q 529 223 513 203 q 497 183 474 159 q 452 135 425 109 q 398 83 370 61 q 343 39 317 22 q 291 6 269 2 q 244 -3 228 4 q 213 10 206 24 q 200 38 202 58 q 203 78 212 101 q 194 84 173 66 q 152 48 130 34 q 108 19 86 10 q 63 0 43 0 q 15 0 0 19 q -15 38 -12 70 q -9 103 15 146 q 39 190 89 240 z m 137 200 q 113 173 100 146 q 88 120 88 102 q 89 85 104 82 q 118 79 149 99 q 171 112 197 136 q 223 161 248 188 q 274 216 296 243 q 319 270 333 288 l 344 302 q 321 315 292 309 q 264 303 236 286 q 207 269 181 246 q 155 222 137 200 z"},"L":{"x_min":0,"x_max":400,"ha":400,"o":"m 271 1 q 250 -2 238 4 q 225 9 215 16 q 205 24 196 32 q 186 40 173 43 q 162 45 148 41 q 135 37 122 30 q 107 22 92 11 q 97 20 103 30 q 108 38 114 46 q 121 55 128 62 l 145 74 l 115 32 q 103 17 86 8 q 70 -2 56 -2 l 27 -2 q 13 -2 10 8 q 8 18 19 32 l 442 636 q 453 651 470 660 q 487 670 501 670 l 530 670 q 544 670 546 660 q 548 650 537 636 l 145 74 q 186 104 210 109 q 235 114 250 108 q 266 102 276 92 q 287 83 301 83 q 320 83 346 100 q 371 116 398 141 q 426 166 452 195 q 479 224 500 249 q 513 265 523 269 q 533 273 538 268 q 542 264 541 254 q 540 244 531 233 q 501 194 466 154 q 432 115 397 82 q 362 49 329 27 q 296 5 271 1 z"},"3":{"x_min":0,"x_max":907,"ha":907,"o":""},";":{"x_min":0,"x_max":171,"ha":171,"o":"m 281 293 q 281 270 265 254 q 249 238 226 238 q 203 238 187 254 q 171 270 171 293 q 171 316 187 332 q 203 347 226 347 q 249 347 265 332 q 281 316 281 293 z m -33 -62 q 9 -36 30 -6 q 52 25 68 59 q 79 81 98 88 q 117 95 132 89 q 147 83 152 66 q 156 50 139 25 q 116 -6 83 -34 q 50 -63 5 -81 q -16 -90 -29 -90 q -42 -91 -46 -87 q -51 -83 -48 -76 q -44 -69 -33 -62 z"},"J":{"x_min":0,"x_max":485,"ha":485,"o":"m 505 286 q 456 212 413 158 q 370 104 326 68 q 282 33 234 16 q 186 -2 127 -2 q 83 -2 56 20 q 28 41 18 73 q 7 105 12 143 q 18 181 38 214 q 58 247 92 270 q 126 293 174 295 q 203 296 215 280 q 227 265 228 246 q 228 228 220 213 q 211 198 199 200 q 160 206 132 196 q 103 186 85 168 q 67 151 60 128 q 54 106 60 86 q 65 66 83 52 q 101 39 132 39 q 169 39 202 58 q 235 77 266 109 q 298 141 328 184 q 358 227 390 274 q 398 287 418 316 q 439 346 466 384 q 492 421 521 462 q 550 502 575 537 q 600 572 618 596 q 636 620 640 625 q 585 625 544 618 q 502 610 470 601 q 439 592 416 584 q 392 577 374 577 q 358 577 359 590 q 360 604 370 620 q 381 637 398 650 q 416 664 433 664 l 741 664 q 755 664 758 654 q 760 644 749 630 q 746 627 730 604 q 714 582 690 549 q 666 516 638 476 q 610 437 584 400 q 558 363 536 332 q 515 301 505 286 z"},"V":{"x_min":0,"x_max":438,"ha":438,"o":"m 467 636 q 464 633 449 612 q 434 591 411 558 q 388 526 360 487 q 332 448 304 409 q 277 370 252 334 q 227 299 210 276 q 179 232 155 193 q 131 154 120 125 q 108 96 111 79 q 114 62 136 62 q 174 62 220 92 q 266 121 316 170 q 365 218 416 280 q 467 341 516 406 q 564 471 608 533 q 651 595 686 644 q 696 658 708 663 q 719 668 726 666 q 734 663 735 654 q 736 644 726 629 q 697 586 654 522 q 612 459 560 389 q 508 319 450 250 q 392 180 332 124 q 271 68 212 34 q 152 -1 97 -1 q 46 -1 26 21 q 6 43 12 82 q 17 122 44 176 q 72 230 117 293 q 137 321 162 356 q 186 392 212 428 q 237 465 261 500 q 285 535 305 564 q 325 593 339 612 q 353 631 357 636 q 369 651 386 660 q 402 670 416 670 l 460 670 q 474 670 476 660 q 478 650 467 636 z"},"\"":{"x_min":0,"x_max":228,"ha":228,"o":"m 195 419 q 225 458 244 495 q 262 532 279 566 q 289 588 309 594 q 329 601 344 595 q 360 589 364 572 q 369 556 349 532 q 324 503 298 475 q 271 447 236 414 q 219 398 208 393 q 197 388 192 390 q 186 392 186 400 q 187 408 195 419 z m 306 419 q 336 458 354 495 q 372 532 389 566 q 400 588 420 594 q 440 601 456 595 q 471 589 475 572 q 479 556 459 532 q 434 503 408 475 q 382 447 347 414 q 330 398 319 393 q 308 388 302 390 q 297 392 298 400 q 298 408 306 419 z"},"7":{"x_min":0,"x_max":907,"ha":907,"o":""},"S":{"x_min":0,"x_max":445,"ha":445,"o":"m 322 554 q 368 614 439 642 q 510 671 619 671 q 647 671 663 662 q 679 653 665 626 q 656 610 637 592 q 618 574 595 566 q 584 563 571 562 q 558 560 548 562 q 538 564 534 570 q 530 575 537 584 q 541 589 548 596 q 554 602 559 608 q 564 615 566 620 q 569 626 565 629 q 537 634 511 630 q 485 627 462 616 q 439 606 420 590 q 402 573 390 554 q 374 529 376 498 q 378 468 388 434 q 399 399 412 360 q 426 322 432 282 q 438 241 431 198 q 424 155 395 111 q 346 39 282 15 q 219 -9 145 -3 q 110 0 84 16 q 57 33 40 56 q 23 80 16 108 q 8 137 10 164 q 13 191 26 213 q 39 235 63 246 q 78 253 96 254 q 114 254 128 250 q 142 247 148 240 q 154 233 145 225 q 124 205 114 178 q 105 152 107 126 q 109 100 123 78 q 137 55 163 45 q 180 38 199 36 q 218 35 236 40 q 255 45 273 59 q 291 73 306 97 q 327 131 328 168 q 329 204 320 242 q 312 279 300 318 q 287 357 282 396 q 277 435 284 474 q 291 514 322 554 z"},"}":{"x_min":0,"x_max":386,"ha":386,"o":"m -39 -76 q -7 -62 22 -36 q 51 -10 78 21 q 106 52 132 84 q 158 117 184 144 q 210 171 236 189 q 261 207 288 209 q 269 225 266 244 q 264 264 271 285 q 278 306 290 328 q 303 351 314 374 q 326 397 332 420 q 337 443 330 465 q 324 484 324 498 q 324 512 330 516 q 335 521 344 514 q 354 508 367 488 q 387 458 392 427 q 397 396 394 367 q 390 338 382 312 q 375 286 370 266 q 366 245 368 232 q 370 218 386 214 q 398 211 399 204 q 400 197 392 190 q 385 182 370 176 q 356 169 337 168 q 319 167 300 151 q 282 135 260 110 q 239 86 215 56 q 191 27 162 -1 q 134 -29 101 -52 q 68 -76 29 -88 q -10 -100 -35 -104 q -60 -107 -70 -104 q -79 -102 -72 -94 q -65 -87 -39 -76 z"},"Z":{"x_min":0,"x_max":509,"ha":509,"o":"m 412 670 q 433 673 449 664 q 465 656 480 644 q 496 633 512 622 q 528 610 548 607 q 557 605 570 608 q 582 612 596 618 q 609 623 622 630 q 635 637 646 643 q 662 657 681 666 q 700 674 714 674 l 743 674 q 757 674 756 664 q 755 655 740 641 l 204 116 q 247 137 278 135 q 309 133 333 122 q 357 112 376 100 q 395 88 413 88 q 432 88 457 104 q 482 119 509 143 q 536 167 562 196 q 589 224 609 249 q 622 265 632 269 q 642 273 646 268 q 651 264 650 254 q 649 244 641 233 q 611 194 576 155 q 542 116 508 84 q 473 52 440 30 q 408 9 382 6 q 361 3 340 12 q 320 20 299 32 q 278 43 258 54 q 237 66 217 69 q 206 70 192 66 q 179 62 164 56 q 150 49 136 41 q 123 33 113 27 l 96 16 q 95 16 94 15 q 70 2 53 2 l 23 2 q 9 2 10 12 q 12 22 27 36 l 560 558 q 518 538 488 540 q 458 541 435 551 q 412 561 394 572 q 377 584 359 584 q 331 584 300 557 q 288 546 278 544 q 268 542 262 546 q 257 550 259 559 q 261 568 273 580 q 308 614 347 640 q 386 666 412 670 z"},"x":{"x_min":0,"x_max":324,"ha":324,"o":"m -2 11 q -17 2 -28 4 q -38 5 -42 12 q -45 20 -40 30 q -36 41 -20 50 q 12 69 40 86 q 68 103 93 120 q 93 121 92 122 q 92 122 92 123 q 89 145 90 170 q 92 195 95 218 q 98 240 102 257 q 106 274 108 281 q 116 310 128 330 q 141 349 166 350 l 182 350 q 206 350 215 345 q 224 340 213 316 q 203 295 195 262 q 187 229 185 194 q 216 223 246 256 q 275 290 307 333 q 316 345 334 349 q 353 353 369 351 q 385 349 394 342 q 404 336 395 326 q 357 284 302 234 q 247 185 185 137 q 186 135 186 134 q 185 133 186 131 q 188 116 192 104 q 195 91 200 82 q 206 74 214 72 q 223 70 236 76 q 255 85 279 104 q 303 122 328 146 q 354 170 379 197 q 404 224 424 249 q 438 265 448 269 q 457 273 462 269 q 466 265 465 255 q 464 245 456 233 q 445 217 416 182 q 386 148 348 110 q 310 73 269 42 q 228 11 195 2 q 172 -4 156 0 q 140 3 129 14 q 118 24 111 40 q 104 56 100 75 q 74 57 48 41 q 23 25 -2 11 z"},")":{"x_min":0,"x_max":386,"ha":386,"o":"m -69 -64 q 24 -24 102 40 q 180 103 233 177 q 286 251 308 330 q 330 408 310 477 q 304 496 304 510 q 305 523 310 528 q 316 532 326 526 q 335 520 348 500 q 392 431 401 368 q 410 305 392 249 q 374 193 334 144 q 294 95 240 54 q 187 13 124 -20 q 62 -52 -1 -76 q -39 -90 -64 -94 q -88 -98 -98 -95 q -108 -92 -101 -84 q -94 -75 -69 -64 z"},"&":{"x_min":0,"x_max":552,"ha":552,"o":"m 651 238 q 637 236 619 238 q 610 181 574 135 q 538 89 488 56 q 439 24 382 6 q 325 -11 274 -11 q 216 -11 178 6 q 141 24 124 51 q 106 78 108 112 q 110 145 132 178 q 153 210 194 237 q 234 264 293 279 q 258 292 245 314 q 232 337 236 364 q 241 390 261 418 q 281 446 314 471 q 380 522 468 551 q 557 580 654 580 q 668 580 680 578 q 691 576 698 570 q 705 565 706 556 q 707 547 699 534 q 691 518 672 500 q 654 482 631 475 q 620 472 607 470 q 594 469 584 471 q 574 473 570 478 q 565 483 573 492 q 577 497 582 502 q 586 508 589 513 q 592 518 593 522 q 594 527 590 531 q 565 529 536 522 q 508 516 480 504 q 453 491 429 474 q 405 456 389 432 q 353 378 374 342 q 395 305 464 297 q 496 300 530 303 q 565 306 596 308 q 627 311 651 313 q 675 315 685 315 q 701 315 703 303 q 705 291 698 276 q 691 262 678 250 q 665 238 651 238 z m 292 46 q 341 39 380 58 q 419 76 447 108 q 475 139 490 178 q 506 217 508 250 q 479 254 454 256 q 428 259 411 260 q 338 248 292 216 q 245 183 228 147 q 212 111 227 82 q 242 52 292 46 z"},"_":{"x_min":0,"x_max":314,"ha":314,"o":"m 262 -7 q 295 -7 318 -15 q 341 -23 352 -33 q 362 -43 358 -51 q 354 -59 333 -59 l 117 -59 q 91 -59 73 -51 q 55 -43 48 -33 q 40 -23 44 -15 q 48 -7 66 -7 z"},"v":{"x_min":0,"x_max":361,"ha":361,"o":"m 244 316 q 241 313 233 302 q 225 291 216 278 q 207 266 198 254 q 189 241 185 235 q 129 144 118 105 q 108 66 137 66 q 149 66 164 74 q 180 82 198 96 q 215 109 234 128 q 253 146 272 167 q 260 190 270 228 q 279 265 321 316 q 331 328 346 334 q 362 341 378 342 q 394 344 406 342 q 419 340 423 335 q 428 329 424 315 q 420 301 409 282 q 398 262 380 238 q 362 213 340 186 q 349 184 362 186 q 374 187 390 194 q 405 200 423 213 q 441 226 461 249 q 474 264 484 268 q 494 272 498 268 q 503 263 500 252 q 498 241 485 225 q 438 168 388 149 q 338 130 304 142 q 281 115 256 89 q 231 63 204 43 q 177 23 150 11 q 122 -1 96 -1 q 63 -1 44 13 q 25 27 24 56 q 22 85 38 130 q 54 174 92 235 q 97 244 106 256 q 114 268 122 280 q 130 291 138 301 q 145 311 148 316 q 159 331 175 340 q 191 350 205 350 l 234 350 q 248 350 251 340 q 254 330 244 316 z"},"O":{"x_min":0,"x_max":523,"ha":523,"o":"m 628 631 q 654 598 653 548 q 652 497 632 440 q 613 383 580 324 q 548 266 511 217 q 451 138 382 86 q 314 35 250 12 q 185 -10 130 -4 q 76 3 44 41 q 15 75 11 128 q 7 180 26 242 q 44 304 84 370 q 125 437 185 498 q 245 559 311 602 q 377 645 438 664 q 498 683 548 676 q 599 669 628 631 z m 483 269 q 523 325 551 381 q 579 437 592 484 q 604 532 600 568 q 595 604 571 620 q 547 636 507 628 q 467 621 420 594 q 372 568 324 524 q 275 481 235 425 q 195 368 171 313 q 147 258 138 211 q 130 164 137 129 q 144 94 168 78 q 192 62 230 69 q 267 76 310 102 q 353 128 398 170 q 443 213 483 269 z"},"(":{"x_min":0,"x_max":382,"ha":382,"o":"m 589 498 q 497 458 420 394 q 343 331 292 257 q 240 183 220 104 q 199 26 220 -43 q 226 -63 226 -76 q 226 -90 220 -94 q 215 -99 206 -92 q 196 -86 183 -66 q 138 3 128 66 q 118 129 134 185 q 151 241 190 290 q 229 339 282 380 q 335 421 396 454 q 458 486 521 510 q 559 524 584 528 q 608 532 618 529 q 628 526 621 518 q 614 509 589 498 z"},"C":{"x_min":0,"x_max":416,"ha":416,"o":"m 551 567 q 540 564 527 562 q 514 561 504 563 q 494 565 490 570 q 485 575 493 584 q 497 590 502 596 q 506 601 509 606 q 512 611 513 616 q 514 620 510 623 q 436 609 374 564 q 311 520 263 462 q 215 403 184 338 q 153 273 142 216 q 131 159 143 118 q 155 78 193 70 q 238 59 284 74 q 330 90 372 119 q 414 148 451 184 q 488 219 516 249 q 530 264 540 267 q 551 270 556 266 q 561 263 560 254 q 558 244 548 233 q 516 197 478 156 q 440 115 394 80 q 347 46 292 23 q 236 0 170 0 q 105 0 68 29 q 31 58 18 105 q 5 152 15 212 q 25 273 56 336 q 87 399 137 460 q 187 520 253 567 q 319 614 400 643 q 481 672 574 672 q 588 672 600 670 q 612 668 619 663 q 626 658 626 649 q 627 640 620 627 q 611 611 592 593 q 574 575 551 567 z"},"W":{"x_min":0,"x_max":669,"ha":669,"o":"m 717 636 q 715 633 700 612 q 684 591 661 558 q 638 526 610 487 q 582 448 554 409 q 526 370 502 334 q 477 299 460 276 q 429 232 405 193 q 381 154 370 125 q 358 96 361 79 q 364 62 386 62 q 418 62 457 90 q 496 118 540 165 q 583 212 629 272 q 675 333 721 398 q 767 462 810 526 q 854 590 893 644 q 903 658 914 663 q 925 668 932 665 q 940 662 941 652 q 942 643 932 629 q 889 568 842 498 q 796 427 748 357 q 699 287 649 222 q 599 157 548 108 q 497 58 446 28 q 396 -1 347 -1 q 291 -1 272 25 q 253 51 264 97 q 222 55 178 27 q 134 -1 89 -1 q 42 -1 24 21 q 6 43 13 82 q 20 121 48 175 q 77 229 122 293 q 142 321 167 356 q 192 392 218 428 q 243 465 268 500 q 292 535 312 564 q 332 593 346 612 q 359 631 363 636 q 374 651 392 660 q 409 670 423 670 l 465 670 q 479 670 482 660 q 484 650 473 636 q 470 633 454 612 q 439 591 416 558 q 394 526 366 487 q 338 448 310 409 q 283 370 258 334 q 234 299 217 276 q 185 231 161 193 q 137 155 125 127 q 113 99 114 83 q 115 67 134 67 q 157 67 182 82 q 206 96 232 121 q 257 146 283 178 q 309 211 335 246 q 343 257 350 269 q 358 281 367 293 q 387 321 412 356 q 437 392 463 428 q 489 465 514 500 q 540 535 561 564 q 582 593 596 612 q 610 631 614 636 q 626 651 639 660 q 652 670 666 670 l 710 670 q 724 670 726 660 q 728 650 717 636 z"},"A":{"x_min":0,"x_max":739,"ha":739,"o":"m 1003 651 q 954 587 906 520 q 885 491 863 460 q 841 428 818 396 q 796 363 774 331 q 753 299 734 269 q 687 196 666 154 q 644 112 642 94 q 639 77 654 82 q 670 87 698 109 q 725 131 762 168 q 799 204 841 249 q 853 262 862 264 q 871 267 874 262 q 877 256 874 245 q 871 234 861 221 q 822 172 782 130 q 741 89 703 59 q 665 29 631 12 q 597 -4 570 -4 q 519 -4 515 42 q 511 89 550 165 l 318 169 l 138 33 q 118 18 95 8 q 72 -1 58 -1 l 29 -1 q 15 -1 10 9 q 6 19 26 33 l 869 638 q 890 652 913 662 q 936 671 950 671 l 1000 671 q 1008 671 1010 666 q 1011 660 1003 651 z m 375 213 l 575 209 q 588 230 604 252 q 619 275 638 300 q 669 340 704 385 q 739 430 772 472 q 806 514 835 548 q 864 581 883 598 z"},"f":{"x_min":0,"x_max":199,"ha":199,"o":"m 146 316 q 146 317 148 319 q 177 361 208 405 q 238 449 270 490 q 302 531 334 567 q 367 603 400 628 q 432 653 463 665 q 494 677 524 670 q 555 663 559 632 q 563 601 534 553 q 506 505 442 444 q 378 383 273 316 q 304 315 326 306 q 348 297 358 286 q 368 276 364 268 q 360 259 341 259 l 204 259 l -74 -169 q -86 -184 -103 -194 q -120 -203 -134 -203 l -163 -203 q -177 -203 -179 -193 q -181 -183 -170 -169 q -119 -89 -69 -11 q -48 22 -24 58 q -1 94 22 130 q 45 165 66 198 q 88 231 107 259 q 83 260 66 270 q 49 279 42 289 q 35 299 38 308 q 42 316 59 316 z m 510 616 q 504 626 488 618 q 473 609 452 588 q 430 567 406 538 q 381 508 356 476 q 332 444 310 413 q 288 382 272 360 q 296 374 325 396 q 354 417 382 442 q 411 467 437 493 q 463 519 481 542 q 499 566 508 586 q 516 605 510 616 z"},"Q":{"x_min":0,"x_max":535,"ha":535,"o":"m 408 6 q 377 1 353 12 q 329 22 309 40 q 268 19 229 8 q 190 -3 156 -3 q 121 -3 92 8 q 64 20 45 43 q 16 77 12 130 q 7 182 26 244 q 45 306 86 372 q 126 439 186 501 q 246 562 312 604 q 378 647 438 666 q 499 685 549 678 q 599 671 629 634 q 655 601 654 550 q 653 499 634 442 q 614 385 582 326 q 549 268 512 219 q 484 182 454 152 q 425 122 394 97 q 413 83 432 83 q 451 83 478 100 q 504 116 532 141 q 560 166 587 195 q 614 224 635 249 q 649 265 659 269 q 669 273 674 268 q 678 264 677 254 q 676 244 667 233 q 637 194 602 155 q 568 116 534 84 q 499 52 466 30 q 434 9 408 6 z m 484 272 q 524 328 552 384 q 579 439 592 487 q 604 535 600 570 q 596 606 572 622 q 548 638 508 630 q 467 623 420 596 q 373 570 324 526 q 276 483 236 427 q 188 359 163 295 q 138 231 134 180 q 175 204 208 206 q 240 209 266 198 q 292 188 313 170 q 334 151 353 133 q 387 159 420 194 q 453 229 484 272 z m 169 81 q 187 69 213 70 q 239 70 269 83 q 258 96 247 108 q 236 121 225 130 q 214 140 202 146 q 190 152 177 152 q 168 152 157 148 q 146 145 135 140 q 141 100 169 81 z"},"w":{"x_min":0,"x_max":504,"ha":504,"o":"m 416 316 q 413 313 405 302 q 397 291 388 278 q 378 266 369 254 q 360 241 356 235 q 300 144 290 105 q 279 66 308 66 q 331 66 360 94 q 388 122 418 163 q 403 185 411 224 q 419 262 463 316 q 473 328 489 334 q 505 341 521 342 q 537 344 550 342 q 562 340 566 335 q 571 329 567 316 q 563 302 552 282 q 541 263 524 238 q 506 214 484 187 l 484 186 q 493 184 506 186 q 518 187 533 194 q 548 200 566 213 q 584 226 604 249 q 617 264 627 268 q 637 272 642 268 q 646 263 644 252 q 641 241 628 225 q 583 170 534 150 q 486 131 452 140 q 432 113 410 88 q 389 62 366 42 q 343 23 318 11 q 293 -1 267 -1 q 222 -1 204 24 q 186 49 200 103 q 165 66 129 37 q 93 8 63 2 q 34 -4 16 4 q -1 12 -6 30 q -12 47 -6 73 q 1 99 20 130 q 32 150 52 180 q 71 209 91 238 q 111 266 128 289 q 144 312 150 319 q 162 334 179 343 q 196 352 210 352 l 239 352 q 253 352 255 342 q 257 333 246 319 q 242 314 228 295 q 213 276 194 250 q 176 223 156 194 q 136 166 121 142 q 102 112 100 98 q 98 85 106 83 q 115 80 133 94 q 151 108 174 131 q 196 154 220 182 q 244 211 263 237 q 269 246 277 258 q 285 269 293 280 q 301 291 308 301 q 316 311 320 316 q 330 331 346 340 q 362 350 376 350 l 405 350 q 419 350 422 340 q 425 330 416 316 z"},"-":{"x_min":0,"x_max":398,"ha":398,"o":"m 300 202 q 333 202 357 193 q 381 184 392 173 q 402 162 399 153 q 396 144 375 144 l 231 144 q 205 144 186 153 q 168 162 160 173 q 151 184 154 193 q 158 202 176 202 z"},"E":{"x_min":0,"x_max":459,"ha":459,"o":"m 353 524 q 313 464 343 426 q 373 387 464 387 q 489 387 500 380 q 512 374 510 366 q 508 358 492 350 q 475 343 445 342 q 373 339 318 320 q 262 302 224 275 q 186 248 167 216 q 148 185 148 156 q 149 126 170 103 q 192 80 236 70 q 282 59 328 74 q 373 90 415 119 q 457 148 494 184 q 531 219 559 249 q 573 264 584 267 q 594 270 599 266 q 604 263 602 254 q 601 244 591 233 q 559 197 521 156 q 483 115 436 80 q 390 46 334 23 q 279 0 213 0 q 138 0 91 21 q 44 42 24 75 q 5 108 12 149 q 19 190 52 230 q 86 270 145 305 q 204 340 289 362 q 241 372 220 394 q 198 417 199 446 q 200 474 220 505 q 241 536 277 563 q 343 614 432 643 q 520 672 617 672 q 631 672 643 670 q 655 668 662 663 q 669 658 670 649 q 670 640 663 627 q 655 611 636 593 q 617 575 594 567 q 583 564 570 562 q 557 561 547 563 q 537 565 533 570 q 529 575 536 584 q 544 595 552 606 q 561 616 554 623 q 529 622 500 615 q 472 608 444 596 q 417 584 393 566 q 369 548 353 524 z"},"s":{"x_min":0,"x_max":284,"ha":284,"o":"m 122 282 q 147 314 191 332 q 235 350 293 350 q 321 350 337 341 q 353 332 338 305 q 329 289 310 271 q 292 253 269 245 q 258 242 245 240 q 232 239 222 241 q 212 243 208 248 q 204 253 211 262 q 215 267 221 274 q 227 280 232 287 q 237 294 240 300 q 242 305 239 309 q 225 311 205 302 q 185 293 174 276 q 164 261 170 250 q 177 238 191 228 q 205 218 222 206 q 240 195 252 180 q 264 165 266 144 q 269 123 253 93 q 240 69 219 50 q 198 32 173 20 q 148 9 120 4 q 91 0 63 2 q 23 5 6 24 q -12 43 -12 66 q -13 88 0 109 q 12 130 31 139 q 41 144 56 144 q 72 144 84 141 q 96 138 102 132 q 108 126 99 118 q 92 111 83 100 q 74 90 68 78 q 63 67 63 58 q 63 48 74 44 q 85 39 100 40 q 115 41 130 48 q 145 54 158 66 q 171 77 178 95 q 185 113 177 126 q 169 139 156 150 q 142 162 126 174 q 111 185 102 200 q 94 214 97 234 q 100 254 122 282 z"},">":{"x_min":0,"x_max":358,"ha":358,"o":"m 238 236 q 233 243 236 260 q 239 277 246 293 q 254 309 262 318 q 271 328 276 321 l 315 260 q 324 246 322 228 q 320 211 310 194 q 301 177 286 161 q 270 145 252 134 q 226 119 210 110 q 193 101 180 94 q 168 88 158 83 q 148 78 136 71 q 123 64 122 74 q 121 84 128 100 q 135 115 148 132 q 160 149 175 155 q 198 166 220 180 q 242 194 266 202 q 258 209 252 218 q 245 227 238 236 z"},"l":{"x_min":0,"x_max":199,"ha":199,"o":"m 470 638 q 468 635 444 602 q 420 568 384 518 q 349 469 307 410 q 265 350 227 296 q 189 242 160 200 q 131 158 122 142 q 103 112 100 98 q 98 85 106 83 q 116 80 140 96 q 164 112 192 138 q 221 164 250 194 q 279 224 299 249 q 312 265 322 270 q 331 274 336 270 q 340 265 339 255 q 338 245 331 233 q 324 223 308 203 q 291 183 268 159 q 246 135 220 109 q 193 83 166 61 q 138 39 112 22 q 86 6 64 2 q 35 -4 18 5 q 2 14 -2 33 q -7 52 0 78 q 6 103 21 130 q 27 140 44 166 q 62 193 87 230 q 112 266 142 310 q 172 353 203 397 q 234 441 264 483 q 293 525 316 558 q 340 591 356 612 q 371 634 374 638 q 386 653 403 662 q 420 672 434 672 l 463 672 q 477 672 479 662 q 481 652 470 638 z"},"8":{"x_min":0,"x_max":907,"ha":907,"o":""},"\\":{"x_min":0,"x_max":160,"ha":160,"o":"m 316 -55 q 322 -70 314 -76 q 306 -83 292 -82 q 278 -80 262 -70 q 247 -61 237 -43 q 233 -35 217 8 q 201 51 180 112 q 159 172 136 240 q 112 309 92 368 q 72 426 58 466 q 45 505 44 507 q 39 525 42 544 q 44 563 52 574 q 63 589 73 586 q 83 584 88 567 q 89 563 98 536 q 106 510 121 466 q 136 422 157 364 q 178 305 203 237 q 228 169 256 94 q 285 20 316 -55 z"},"e":{"x_min":0,"x_max":329,"ha":329,"o":"m 366 256 q 351 234 326 214 q 300 194 267 178 q 234 162 195 151 q 156 140 115 137 q 109 112 114 94 q 119 75 139 70 q 159 64 194 78 q 229 92 270 118 q 311 144 353 178 q 395 213 429 249 q 442 264 452 267 q 463 270 468 266 q 473 263 472 254 q 470 244 461 233 q 429 197 384 156 q 339 115 291 80 q 243 46 197 23 q 151 0 115 0 q 63 0 41 26 q 19 52 22 92 q 24 131 48 176 q 72 222 111 262 q 150 301 202 327 q 253 353 311 353 q 334 353 351 346 q 368 338 376 326 q 385 313 383 295 q 381 277 366 256 z m 246 304 q 229 298 212 286 q 195 273 180 256 q 164 238 151 218 q 138 198 129 178 q 174 183 207 196 q 240 210 261 226 q 282 243 292 260 q 301 278 300 290 q 298 302 284 307 q 271 312 246 304 z"},"b":{"x_min":0,"x_max":355,"ha":355,"o":"m 470 638 q 468 636 454 616 q 439 595 416 562 q 392 529 362 488 q 333 446 302 402 q 271 358 240 314 q 210 271 185 235 q 153 189 134 157 q 114 125 107 104 q 100 84 104 75 q 108 66 122 66 q 146 66 186 96 q 225 125 266 168 q 254 191 264 228 q 273 265 315 316 q 325 328 340 334 q 356 341 372 342 q 388 344 400 342 q 413 340 417 335 q 422 329 418 315 q 414 301 403 282 q 392 262 374 238 q 357 213 335 186 q 344 184 356 186 q 369 187 384 194 q 399 200 417 213 q 435 226 455 249 q 468 264 478 268 q 489 272 494 268 q 498 263 495 252 q 492 241 479 225 q 431 167 380 148 q 330 129 296 142 q 271 115 244 90 q 216 64 188 44 q 159 23 130 11 q 102 -1 75 -1 q 42 -1 24 13 q 7 27 8 56 q 8 85 28 130 q 48 174 90 235 q 115 272 146 315 q 176 358 206 402 q 237 445 266 486 q 295 527 318 560 q 341 592 356 613 q 371 634 374 638 q 386 653 403 662 q 420 672 434 672 l 463 672 q 477 672 479 662 q 481 652 470 638 z"},"%":{"x_min":0,"x_max":436,"ha":436,"o":"m 212 439 q 223 457 240 472 q 257 486 276 496 q 296 506 317 511 q 338 516 356 514 q 394 509 404 482 q 413 454 389 418 q 377 400 360 386 q 343 371 324 361 q 304 351 283 346 q 262 342 244 344 q 206 348 196 376 q 187 404 212 439 z m 279 458 q 263 445 261 430 q 259 414 266 403 q 274 392 288 389 q 303 386 320 398 q 338 413 340 428 q 341 444 332 454 q 324 465 309 468 q 294 470 279 458 z m 141 32 q 124 17 105 8 q 86 -2 72 -2 l 43 -2 q 29 -2 30 8 q 30 18 46 32 l 499 492 q 516 507 536 516 q 555 526 569 526 l 598 526 q 612 526 611 516 q 610 506 595 492 z m 250 95 q 261 113 278 128 q 295 142 314 152 q 334 162 354 166 q 375 171 394 169 q 432 165 441 138 q 450 110 427 73 q 415 55 398 40 q 381 26 362 16 q 342 7 321 2 q 300 -3 282 -1 q 244 4 234 32 q 225 60 250 95 z m 317 113 q 301 101 299 86 q 297 70 304 58 q 312 47 326 44 q 341 41 358 54 q 376 69 378 84 q 379 100 370 110 q 362 121 347 123 q 332 125 317 113 z"},"m":{"x_min":0,"x_max":582,"ha":582,"o":"m 554 350 q 580 354 597 348 q 614 342 615 322 q 616 303 597 268 q 578 232 533 176 q 510 149 500 131 q 489 113 486 102 q 482 92 484 88 q 486 84 490 83 q 500 80 524 96 q 547 112 576 138 q 604 164 633 194 q 662 224 682 249 q 696 265 706 270 q 715 274 720 270 q 724 265 723 255 q 722 245 715 233 q 708 223 692 203 q 675 183 652 159 q 630 135 604 109 q 577 83 550 61 q 522 39 496 22 q 470 6 448 2 q 418 -4 399 6 q 380 16 376 38 q 373 61 386 96 q 400 131 435 176 q 477 229 496 254 q 516 278 505 283 q 497 287 474 272 q 450 258 419 232 q 388 206 355 173 q 322 140 295 108 l 241 34 q 231 20 214 10 q 196 0 182 0 l 153 0 q 139 0 137 10 q 135 20 146 34 q 161 56 178 81 q 192 102 210 127 q 228 152 248 176 q 290 228 310 253 q 329 278 318 283 q 312 286 296 278 q 280 271 258 256 q 237 240 212 218 q 186 197 161 172 q 136 148 114 123 q 91 98 75 76 q 73 72 71 71 l 45 34 q 33 19 16 10 q -1 0 -15 0 l -44 0 q -58 0 -60 10 q -62 20 -51 34 l 150 319 q 161 334 178 343 q 195 352 209 352 l 238 352 q 252 352 254 342 q 257 333 246 319 l 204 259 q 246 294 288 320 q 330 345 367 350 q 386 353 400 350 q 414 348 420 339 q 427 330 424 314 q 422 297 409 271 q 446 302 483 324 q 520 345 554 350 z"},"#":{"x_min":0,"x_max":398,"ha":398,"o":"m 162 119 q 140 132 138 148 q 136 163 160 163 l 195 163 l 247 231 q 231 237 222 246 q 212 255 209 263 q 206 271 211 277 q 216 283 230 283 l 284 283 q 298 302 308 318 q 318 333 323 342 q 329 353 336 352 q 343 351 348 342 q 352 332 351 316 q 350 301 339 283 l 355 283 q 366 283 376 282 q 385 281 394 279 q 408 299 419 316 q 430 332 435 342 q 441 354 449 352 q 457 351 462 341 q 466 331 464 314 q 462 298 449 280 l 436 262 q 455 249 454 237 q 454 225 430 225 l 409 225 q 395 208 380 188 q 366 169 351 150 q 379 137 384 122 q 388 106 360 106 l 315 106 q 295 83 281 69 q 264 52 252 47 q 241 42 236 44 q 230 46 230 54 q 231 62 239 73 l 264 106 l 216 106 q 207 106 203 107 q 193 95 184 86 q 175 76 168 69 q 151 52 140 47 q 129 42 124 44 q 118 46 118 54 q 119 62 127 73 z m 285 163 q 291 163 296 162 q 302 162 307 161 l 355 225 l 296 225 q 285 210 273 194 q 261 179 248 163 z"},",":{"x_min":0,"x_max":171,"ha":171,"o":"m -33 -62 q 9 -36 30 -6 q 52 25 68 59 q 79 81 98 88 q 117 95 132 89 q 147 83 152 66 q 156 50 139 25 q 116 -6 83 -34 q 50 -63 5 -81 q -16 -90 -29 -90 q -42 -91 -46 -87 q -51 -83 -48 -76 q -44 -69 -33 -62 z"},"n":{"x_min":0,"x_max":387,"ha":387,"o":"m 358 350 q 384 354 401 348 q 418 342 419 322 q 420 303 402 268 q 383 232 338 176 q 315 149 304 131 q 294 113 290 102 q 287 92 289 88 q 291 84 295 83 q 305 80 328 96 q 352 112 380 138 q 409 164 438 194 q 467 224 487 249 q 501 265 510 270 q 520 274 524 270 q 529 265 528 255 q 527 245 519 233 q 512 223 496 203 q 479 183 456 159 q 434 135 408 109 q 381 83 354 61 q 327 39 300 22 q 274 6 253 2 q 223 -4 204 6 q 185 16 182 38 q 178 61 192 96 q 205 131 240 176 q 282 229 302 254 q 321 278 310 283 q 301 288 272 269 q 244 250 208 218 q 172 187 136 148 q 99 110 75 76 q 73 72 71 71 l 45 34 q 33 19 16 10 q -1 0 -15 0 l -44 0 q -58 0 -60 10 q -62 20 -51 34 l 150 319 q 161 334 178 343 q 195 352 209 352 l 238 352 q 252 352 254 342 q 257 333 246 319 l 210 268 q 248 300 286 322 q 323 345 358 350 z"},"h":{"x_min":0,"x_max":386,"ha":386,"o":"m 357 350 q 383 354 400 348 q 417 342 418 322 q 419 303 400 268 q 382 232 337 176 q 314 149 303 131 q 292 113 288 102 q 285 92 287 88 q 289 84 293 83 q 303 80 326 96 q 350 112 378 138 q 407 164 436 194 q 465 224 486 249 q 499 265 508 270 q 518 274 522 270 q 527 265 526 255 q 525 245 517 233 q 510 223 494 203 q 478 183 456 159 q 433 135 406 109 q 379 83 352 61 q 325 39 298 22 q 272 6 251 2 q 222 -4 203 6 q 184 16 180 38 q 176 61 190 96 q 203 131 239 176 q 280 229 300 254 q 320 278 309 283 q 300 287 274 271 q 249 255 217 228 q 185 200 150 165 q 116 130 89 97 l 45 34 q 33 19 16 10 q -1 0 -15 0 l -44 0 q -58 0 -60 10 q -62 20 -51 34 l 371 638 q 382 653 399 662 q 416 672 430 672 l 459 672 q 473 672 476 662 q 478 652 467 638 l 208 268 q 246 300 284 322 q 322 345 357 350 z"},"z":{"x_min":0,"x_max":334,"ha":334,"o":"m 355 333 q 362 343 372 346 q 383 348 392 346 q 401 343 406 337 q 410 331 405 323 q 389 298 364 270 q 338 242 306 214 q 275 185 239 156 q 203 128 167 102 q 179 103 187 100 q 195 97 202 94 q 208 90 214 87 q 221 84 230 84 q 249 84 276 100 q 302 117 330 142 q 359 166 386 195 q 414 224 434 249 q 447 265 457 269 q 467 273 472 268 q 477 264 476 254 q 475 244 466 233 q 436 194 400 154 q 365 115 329 82 q 293 50 260 28 q 226 6 200 2 q 179 -1 168 4 q 158 9 151 17 q 144 25 137 33 q 130 41 117 44 q 105 47 90 42 q 74 36 60 28 q 53 23 46 19 q 40 15 33 11 q 18 2 8 3 q -3 4 -6 12 q -10 19 -6 30 q -1 40 14 50 q 49 73 86 98 q 123 124 160 152 q 196 179 230 207 q 264 235 293 262 q 250 249 217 257 q 184 265 166 284 q 154 258 130 230 q 118 217 108 214 q 98 210 93 214 q 88 217 89 226 q 90 236 100 249 q 115 268 129 290 q 143 311 147 326 l 147 332 q 147 344 162 350 q 178 357 198 358 q 217 359 234 354 q 252 350 256 339 q 260 329 269 320 q 278 311 291 308 q 304 305 320 310 q 337 315 355 333 z"},"B":{"x_min":0,"x_max":830,"ha":830,"o":"m 714 673 q 796 671 847 652 q 898 633 922 604 q 945 576 944 541 q 942 506 920 472 q 898 438 856 409 q 815 380 759 363 q 799 336 814 299 q 830 262 824 222 q 817 181 790 142 q 763 102 717 71 q 671 40 608 20 q 544 1 465 1 q 397 1 357 6 q 317 11 296 18 q 274 24 268 30 q 261 35 261 36 q 192 -2 106 -2 q 45 -2 17 36 q 9 45 10 55 q 11 65 19 64 q 25 63 34 59 q 42 55 54 50 q 66 46 80 42 q 95 39 112 39 q 149 39 182 58 q 215 77 246 109 q 277 141 307 184 q 337 227 369 274 q 377 287 394 310 q 410 334 430 362 q 451 391 472 422 q 494 452 512 478 q 531 503 544 522 q 557 540 561 545 q 572 559 588 572 q 603 585 634 593 q 651 598 661 600 q 671 602 682 604 q 693 607 697 596 q 701 584 690 570 q 687 567 672 546 q 658 526 636 496 q 615 467 590 432 q 566 397 544 365 l 591 365 q 655 365 702 385 q 748 405 777 435 q 806 465 818 500 q 829 535 824 565 q 818 595 796 615 q 773 635 733 635 q 662 635 620 622 q 577 609 546 582 q 515 555 488 513 q 462 471 423 413 q 383 425 368 450 q 354 474 362 504 q 370 533 398 564 q 427 594 472 619 q 518 644 580 660 q 641 675 714 673 z m 490 286 q 439 210 394 155 q 350 100 303 64 q 319 56 355 50 q 391 43 465 43 q 526 43 572 64 q 619 84 650 116 q 680 147 692 183 q 705 219 698 250 q 691 282 663 302 q 635 323 583 323 l 515 323 z m 286 93 q 285 93 285 92 l 285 90 z"},"K":{"x_min":0,"x_max":715,"ha":715,"o":"m 491 286 q 442 212 398 158 q 354 104 309 68 q 264 33 215 16 q 166 -2 106 -2 q 76 -2 54 8 q 31 19 17 36 q 10 45 11 55 q 12 65 20 64 q 25 63 34 59 q 42 55 54 50 q 66 46 80 42 q 95 39 112 39 q 149 39 182 58 q 215 77 246 109 q 277 141 307 184 q 337 227 369 274 q 378 287 398 316 q 419 346 446 384 q 472 421 502 462 q 531 502 556 537 q 580 572 598 596 q 615 620 619 625 q 630 640 645 652 q 660 664 687 664 l 727 664 q 741 664 743 654 q 745 644 734 630 q 731 627 711 599 q 691 571 663 532 q 635 492 603 447 q 571 402 544 364 q 568 368 602 384 q 636 401 675 426 q 714 450 755 480 q 796 511 835 542 q 874 573 908 603 q 941 633 965 657 q 976 668 992 670 q 1009 673 1037 673 q 1050 673 1062 672 q 1075 672 1080 668 q 1086 665 1082 656 q 1078 646 1060 628 q 1034 603 998 574 q 961 546 919 518 q 877 489 832 462 q 787 435 746 412 q 704 388 668 370 q 633 352 610 343 q 604 317 600 274 q 596 230 596 188 q 596 145 602 114 q 607 82 620 81 q 635 79 660 96 q 685 113 712 138 q 740 164 768 194 q 795 224 815 249 q 829 265 838 270 q 848 274 852 270 q 857 265 856 255 q 855 245 847 233 q 840 223 824 202 q 807 181 784 156 q 762 131 735 104 q 708 77 680 54 q 653 32 626 17 q 600 2 578 0 q 555 -2 540 13 q 524 28 515 54 q 506 81 502 115 q 498 149 498 185 q 499 221 502 255 q 505 289 510 315 l 491 286 z"},"R":{"x_min":0,"x_max":787,"ha":787,"o":"m 712 673 q 810 671 864 646 q 918 621 935 585 q 952 549 936 507 q 920 465 878 427 q 837 389 773 361 q 709 333 631 325 q 625 290 629 248 q 633 205 642 167 q 651 129 664 102 q 677 76 690 75 q 705 73 730 91 q 756 109 784 136 q 812 163 840 194 q 867 224 887 249 q 901 265 910 270 q 920 274 924 270 q 929 265 928 255 q 927 245 919 233 q 912 223 896 202 q 879 181 856 155 q 834 129 806 102 q 779 74 752 51 q 724 28 697 12 q 670 -4 648 -6 q 623 -8 604 9 q 584 26 568 54 q 553 83 542 120 q 532 156 526 193 q 520 230 519 264 q 518 299 522 323 l 515 323 l 490 286 q 441 212 397 158 q 353 104 308 68 q 263 33 214 16 q 165 -2 105 -2 q 76 -2 54 8 q 31 19 17 36 q 9 45 10 55 q 11 65 19 64 q 24 63 33 59 q 42 55 54 50 q 65 46 80 42 q 94 39 111 39 q 148 39 181 58 q 214 77 245 109 q 276 141 306 184 q 337 227 368 274 q 376 287 393 310 q 410 334 430 362 q 450 391 472 422 q 493 452 512 478 q 530 503 543 522 q 556 540 560 545 q 571 559 587 572 q 603 585 633 593 q 650 598 660 600 q 671 602 682 604 q 693 607 696 596 q 700 584 689 570 q 686 567 672 546 q 657 526 636 496 q 615 467 590 432 q 566 397 544 365 l 589 365 q 653 365 700 385 q 746 405 775 435 q 804 465 816 500 q 827 535 821 565 q 815 595 792 615 q 770 635 730 635 q 659 635 616 622 q 574 609 544 582 q 513 555 486 513 q 459 471 420 413 q 380 425 366 450 q 352 474 360 504 q 368 533 396 564 q 425 594 470 619 q 516 644 578 660 q 639 675 712 673 z"},"T":{"x_min":0,"x_max":500,"ha":500,"o":"m 284 326 q 232 326 198 352 q 165 377 154 416 q 142 454 154 499 q 165 544 201 582 q 237 621 298 646 q 360 672 450 672 l 996 672 q 1019 672 1020 657 q 1020 642 1008 624 q 995 607 974 592 q 952 577 931 577 q 920 577 899 580 q 878 582 850 586 q 822 591 788 596 q 755 602 718 608 q 706 591 687 564 q 668 538 646 507 q 623 476 600 442 q 576 409 554 378 q 533 348 516 324 q 499 299 490 286 q 441 212 397 158 q 353 104 308 68 q 263 33 214 16 q 165 -2 106 -2 q 47 -2 17 36 q 10 45 10 54 q 11 64 19 64 q 25 63 34 59 q 42 55 54 50 q 66 46 80 42 q 95 39 112 39 q 149 39 182 58 q 215 77 246 109 q 277 141 307 184 q 337 227 369 274 q 377 286 397 314 q 417 343 442 379 q 468 415 496 454 q 525 494 550 528 q 574 563 592 588 q 611 614 617 622 q 571 628 528 632 q 484 636 448 636 q 384 636 342 618 q 301 599 278 571 q 256 543 252 510 q 249 477 262 449 q 274 421 300 402 q 327 384 366 384 q 391 384 392 375 q 394 366 380 355 q 365 344 339 335 q 313 326 284 326 z"},"P":{"x_min":0,"x_max":734,"ha":734,"o":"m 714 673 q 807 670 856 635 q 906 600 918 549 q 929 498 906 440 q 882 382 830 332 q 777 282 698 249 q 619 216 521 216 l 442 216 q 402 160 364 119 q 326 78 286 51 q 246 24 202 11 q 158 -2 106 -2 q 76 -2 54 8 q 31 19 17 36 q 10 45 11 55 q 12 65 20 64 q 25 63 34 59 q 42 55 54 50 q 66 46 80 42 q 95 39 112 39 q 149 39 182 58 q 215 77 246 109 q 277 141 307 184 q 337 227 369 274 q 377 287 394 310 q 411 334 431 362 q 451 391 472 422 q 494 452 512 478 q 531 503 544 522 q 557 540 561 545 q 572 559 588 572 q 603 585 634 593 q 651 598 661 600 q 671 602 682 604 q 693 607 697 596 q 701 584 690 570 q 688 567 675 550 q 662 532 643 506 q 624 479 602 447 q 580 415 558 384 q 537 354 519 328 q 501 301 491 286 l 472 258 l 529 258 q 593 258 646 286 q 698 314 736 356 q 773 398 794 446 q 815 495 816 537 q 817 579 796 607 q 776 635 731 635 q 660 635 618 622 q 575 609 544 582 q 514 555 488 513 q 461 471 422 413 q 382 425 368 450 q 353 474 362 504 q 370 533 398 564 q 427 595 472 620 q 518 645 580 660 q 641 675 714 673 z"},"|":{"x_min":0,"x_max":160,"ha":160,"o":"m 28 -36 q 19 -50 9 -47 q -1 -44 -8 -32 q -15 -20 -16 -2 q -18 17 -9 35 q -6 41 10 64 q 25 87 49 122 q 73 156 102 198 q 131 240 161 283 q 191 326 220 367 q 249 408 272 440 q 294 472 308 492 q 322 512 323 513 q 335 528 352 537 q 369 546 383 546 q 402 546 406 536 q 409 527 398 513 q 395 510 378 488 q 362 465 336 427 q 309 389 274 338 q 238 286 198 226 q 157 166 114 100 q 71 33 28 -36 z"},"t":{"x_min":0,"x_max":197,"ha":197,"o":"m 106 522 q 130 522 181 522 q 232 523 296 524 l 339 582 q 350 596 367 606 q 384 615 398 615 l 427 615 q 441 615 444 606 q 446 596 435 582 q 433 580 422 564 q 410 549 393 526 q 443 526 492 526 q 541 527 582 528 q 624 528 654 528 q 685 529 699 529 q 724 530 746 520 q 769 510 781 498 q 793 485 790 474 q 787 463 762 463 q 747 463 704 461 q 660 459 600 456 q 541 453 472 450 q 402 447 333 444 q 302 401 268 354 q 234 307 204 264 q 174 222 152 189 q 129 156 120 142 q 102 112 100 98 q 98 85 105 83 q 115 80 138 96 q 162 112 190 138 q 219 164 248 194 q 277 224 297 249 q 311 265 321 270 q 331 274 336 270 q 340 265 338 255 q 337 245 330 233 q 323 223 306 203 q 290 183 268 159 q 245 135 218 109 q 192 83 164 61 q 137 39 111 22 q 85 6 63 2 q 33 -4 17 5 q 1 14 -4 33 q -8 52 -2 78 q 4 103 19 130 q 26 142 48 176 q 71 209 102 252 q 133 296 168 346 q 203 395 235 440 q 167 437 116 435 q 66 433 50 433 q 24 432 21 446 q 18 460 29 476 q 40 493 62 508 q 83 522 106 522 z"},"M":{"x_min":0,"x_max":855,"ha":855,"o":"m 490 286 q 441 212 397 158 q 353 104 308 68 q 263 33 214 16 q 165 -2 106 -2 q 76 -2 54 8 q 31 19 17 36 q 10 45 10 55 q 11 65 19 64 q 25 63 34 59 q 42 55 54 50 q 65 46 80 42 q 94 39 111 39 q 148 39 186 58 q 225 77 262 109 q 300 141 336 184 q 371 227 402 274 q 410 287 431 318 q 452 348 479 386 q 506 425 535 466 q 564 508 590 544 q 615 579 632 604 q 650 629 654 634 q 664 648 676 658 q 688 669 711 671 q 713 672 716 672 l 722 672 l 731 672 l 735 672 l 748 672 q 762 672 767 662 q 772 652 765 638 l 572 170 l 1000 638 q 1016 653 1036 662 q 1057 671 1071 671 l 1084 671 l 1089 671 l 1118 671 q 1132 671 1134 661 q 1137 651 1126 637 q 1123 634 1099 600 q 1075 567 1039 517 q 1003 467 962 408 q 920 349 882 294 q 844 240 815 198 q 786 156 776 140 q 758 110 756 96 q 753 83 761 81 q 771 78 795 94 q 819 111 848 137 q 877 163 906 194 q 935 224 955 249 q 968 265 978 270 q 987 274 992 270 q 996 265 995 255 q 994 245 987 233 q 980 223 964 203 q 947 183 924 158 q 902 134 876 108 q 849 82 822 60 q 794 37 768 21 q 741 5 719 1 q 690 -5 674 4 q 657 13 652 32 q 648 50 654 76 q 661 101 676 129 q 682 140 702 171 q 723 202 752 244 q 781 286 816 336 q 850 385 884 433 l 533 34 q 518 19 499 10 q 480 0 466 0 l 448 0 l 444 0 q 433 2 428 11 q 424 20 431 34 l 584 422 q 552 378 526 340 q 501 303 490 286 z"},"g":{"x_min":0,"x_max":365,"ha":365,"o":"m 89 240 q 135 285 177 311 q 219 337 255 346 q 291 356 319 350 q 347 345 365 329 q 376 340 390 346 q 404 352 416 352 l 445 352 q 459 352 462 342 q 464 333 453 319 q 450 316 434 294 q 417 271 390 233 q 363 195 328 144 q 292 92 252 32 q 211 -28 168 -94 q 125 -161 82 -230 q 74 -244 60 -241 q 47 -238 36 -226 q 25 -214 20 -196 q 16 -177 25 -159 q 30 -148 50 -119 q 70 -90 98 -51 q 127 -12 162 32 q 196 76 229 117 q 211 99 188 78 q 166 58 141 40 q 116 23 91 12 q 66 0 43 0 q 15 0 0 19 q -15 38 -12 70 q -9 103 15 146 q 39 190 89 240 z m 137 200 q 113 173 100 146 q 88 120 88 102 q 89 85 104 82 q 118 79 149 99 q 173 114 203 142 q 233 170 260 201 q 288 232 310 260 q 333 287 344 302 q 321 315 292 309 q 264 303 236 286 q 207 269 181 246 q 155 222 137 200 z"},"j":{"x_min":0,"x_max":160,"ha":160,"o":"m -125 -230 q -133 -244 -146 -241 q -160 -238 -171 -226 q -182 -214 -186 -196 q -191 -177 -182 -159 q -178 -151 -152 -113 q -127 -75 -90 -22 q -54 30 -12 90 q 29 149 65 200 q 101 250 125 284 q 149 317 150 319 q 162 334 178 343 q 195 352 209 352 l 238 352 q 252 352 254 342 q 257 333 246 319 q 243 316 226 294 q 210 271 183 233 q 156 195 120 144 q 85 92 45 32 q 5 -28 -38 -94 q -82 -161 -125 -230 z m 338 473 q 338 450 322 434 q 306 418 283 418 q 260 418 244 434 q 229 450 229 473 q 229 496 244 512 q 260 527 283 527 q 306 527 322 512 q 338 496 338 473 z"},"i":{"x_min":0,"x_max":200,"ha":200,"o":"m 248 319 q 244 314 229 295 q 214 276 196 250 q 177 223 157 194 q 137 166 122 142 q 103 112 101 98 q 99 85 107 83 q 117 80 140 96 q 164 112 192 138 q 221 164 250 194 q 279 224 300 249 q 313 265 322 270 q 332 274 336 270 q 341 265 340 255 q 339 245 331 233 q 324 223 308 203 q 292 183 270 159 q 247 135 220 109 q 193 83 166 61 q 138 39 112 22 q 86 6 64 2 q 35 -4 19 5 q 3 14 -2 33 q -6 52 0 78 q 6 103 22 130 q 33 150 52 180 q 72 209 92 238 q 112 266 129 289 q 146 312 152 319 q 163 334 180 343 q 197 352 211 352 l 240 352 q 254 352 256 342 q 259 333 248 319 z m 346 473 q 346 450 330 434 q 315 418 292 418 q 269 418 253 434 q 237 450 237 473 q 237 496 253 512 q 269 527 292 527 q 315 527 330 512 q 346 496 346 473 z"},"y":{"x_min":0,"x_max":355,"ha":355,"o":"m 73 -230 q 65 -244 52 -241 q 39 -238 28 -226 q 17 -214 12 -196 q 8 -177 17 -159 q 21 -149 38 -124 q 55 -99 80 -66 q 104 -32 134 8 q 164 47 194 85 q 160 54 126 30 q 91 7 64 2 q 35 -4 19 5 q 3 14 -2 33 q -6 52 0 78 q 6 103 22 130 q 33 150 52 180 q 72 209 92 238 q 112 266 129 289 q 146 312 152 319 q 163 334 180 343 q 197 352 211 352 l 240 352 q 254 352 256 342 q 259 333 248 319 q 244 314 229 295 q 214 276 196 250 q 177 223 157 194 q 137 166 122 142 q 103 112 101 98 q 99 85 107 83 q 116 80 138 94 q 160 109 187 132 q 214 156 242 185 q 270 214 291 239 q 314 272 330 294 q 345 315 349 319 q 360 334 377 343 q 394 352 408 352 l 437 352 q 451 352 453 342 q 455 333 444 319 q 441 316 424 294 q 408 271 381 233 q 354 195 318 144 q 283 92 243 32 q 203 -28 160 -94 q 116 -161 73 -230 z"},"@":{"x_min":0,"x_max":703,"ha":703,"o":"m 265 240 q 311 285 353 311 q 395 337 430 346 q 466 356 494 350 q 522 345 540 329 q 566 352 591 352 l 620 352 q 634 352 636 342 q 639 333 628 319 q 624 314 609 295 q 594 276 576 250 q 557 223 537 194 q 517 166 503 142 q 484 112 482 98 q 479 84 487 83 q 506 80 532 98 q 558 116 584 147 q 610 178 634 218 q 657 259 672 302 q 687 344 690 384 q 693 423 678 452 q 657 493 611 506 q 565 518 506 504 q 448 491 383 453 q 318 415 260 356 q 202 297 164 234 q 125 170 107 110 q 89 51 93 0 q 97 -51 125 -84 q 162 -127 228 -128 q 294 -129 370 -91 q 387 -82 403 -81 q 419 -80 428 -84 q 436 -89 434 -98 q 431 -108 412 -120 q 360 -152 310 -170 q 259 -187 214 -190 q 170 -192 133 -180 q 96 -167 72 -138 q 39 -99 34 -38 q 30 22 51 93 q 72 164 118 240 q 165 316 234 386 q 303 456 377 500 q 451 543 518 559 q 586 575 642 562 q 698 549 731 506 q 756 474 756 426 q 757 379 739 326 q 721 272 688 218 q 656 164 616 119 q 576 74 531 42 q 486 10 444 2 q 419 -3 404 3 q 388 9 382 23 q 375 37 376 58 q 378 78 387 101 q 369 84 348 66 q 327 48 305 34 q 283 19 260 10 q 238 0 218 0 q 190 0 175 19 q 160 38 163 70 q 166 103 190 146 q 214 190 265 240 z m 312 200 q 288 173 276 146 q 263 120 264 102 q 264 85 278 82 q 293 79 324 99 q 346 112 372 136 q 399 161 424 189 q 450 217 472 244 q 495 271 509 289 l 519 302 q 496 315 468 309 q 439 303 410 286 q 382 269 356 246 q 330 222 312 200 z"},".":{"x_min":0,"x_max":171,"ha":171,"o":"m 160 55 q 160 32 144 16 q 129 0 106 0 q 83 0 67 16 q 51 32 51 55 q 51 78 67 94 q 83 109 106 109 q 129 109 144 94 q 160 78 160 55 z"},"p":{"x_min":0,"x_max":363,"ha":363,"o":"m 71 28 q 62 42 61 58 q 17 -7 -30 -80 q -77 -153 -125 -230 q -133 -244 -146 -241 q -160 -238 -171 -226 q -182 -214 -186 -196 q -191 -177 -182 -159 q -179 -153 -164 -130 q -148 -106 -124 -72 q -101 -37 -72 4 q -43 46 -12 89 q 18 132 46 173 q 75 214 98 246 q 120 278 134 298 q 149 318 150 319 q 161 334 178 343 q 195 352 209 352 l 238 352 q 252 352 254 342 q 257 333 246 319 l 229 297 q 282 333 328 346 q 373 360 396 337 q 411 321 410 293 q 408 265 393 231 q 378 197 352 160 q 325 123 292 89 q 258 55 224 34 q 190 14 160 7 q 130 0 106 6 q 83 11 71 28 z m 159 195 q 133 162 119 138 q 105 113 100 96 q 96 78 98 67 q 101 56 108 51 q 126 39 162 58 q 199 78 237 128 q 256 153 272 178 q 288 202 298 224 q 307 245 308 260 q 310 276 302 283 q 294 290 278 286 q 262 283 242 271 q 222 259 200 240 q 178 220 159 195 z"},"X":{"x_min":0,"x_max":756,"ha":756,"o":"m 661 80 q 676 78 701 95 q 726 112 754 138 q 781 164 808 194 q 836 224 856 249 q 869 265 878 270 q 888 274 892 270 q 897 265 896 255 q 895 245 888 233 q 881 223 864 202 q 848 181 826 156 q 803 131 776 104 q 749 77 722 54 q 694 32 668 16 q 641 1 619 -1 q 590 -4 573 18 q 556 40 547 78 q 538 116 537 167 q 536 218 539 274 q 458 204 400 152 q 343 100 296 66 q 250 32 208 16 q 165 -1 115 -1 q 81 -1 60 12 q 38 26 26 42 q 15 59 12 72 q 9 86 12 85 q 17 85 25 79 q 33 73 45 66 q 57 60 74 54 q 92 49 118 49 q 160 49 212 78 q 264 106 320 150 q 376 194 434 246 q 491 298 545 345 q 550 392 556 438 q 563 483 570 522 q 577 562 583 592 q 589 623 594 640 q 597 651 608 654 q 619 658 641 658 q 690 658 686 635 q 679 606 669 552 q 659 498 649 433 l 885 627 q 904 641 926 653 q 949 665 972 665 q 995 665 990 655 q 986 645 969 631 q 964 628 929 599 q 894 570 844 530 q 795 489 740 443 q 684 397 638 358 q 632 306 628 256 q 625 207 626 168 q 628 130 636 106 q 644 81 661 80 z"},"*":{"x_min":0,"x_max":387,"ha":387,"o":"m 260 296 q 234 285 214 284 q 194 284 183 288 q 172 293 172 302 q 173 310 189 318 q 208 327 220 332 q 231 337 240 341 q 249 345 258 349 q 266 353 280 359 q 278 361 278 361 q 260 375 252 392 q 244 408 244 420 q 244 432 252 436 q 259 441 271 431 q 280 423 286 418 q 292 414 296 410 q 301 406 306 402 q 310 399 317 394 q 333 420 352 434 q 371 449 385 452 q 399 455 404 448 q 410 441 400 424 l 390 407 q 421 417 444 419 q 467 421 479 418 q 491 415 490 408 q 489 401 472 394 q 443 381 420 370 q 397 359 374 348 q 390 330 398 314 q 405 297 405 286 q 405 276 398 274 q 391 271 378 281 l 336 314 l 328 299 q 315 276 298 264 q 281 253 268 251 q 254 249 248 256 q 242 264 251 279 z"},"Y":{"x_min":0,"x_max":447,"ha":447,"o":"m 488 290 q 438 216 395 162 q 352 107 308 72 q 265 36 217 18 q 169 1 110 1 q 72 1 49 19 q 26 37 17 64 q 8 91 12 122 q 17 154 34 182 q 51 209 80 228 q 110 247 151 249 q 179 250 191 235 q 203 220 204 201 q 205 182 196 167 q 188 152 176 154 q 144 159 120 152 q 96 146 81 134 q 66 121 60 106 q 55 90 59 76 q 63 61 77 52 q 91 42 116 42 q 152 42 185 61 q 218 80 250 112 q 281 145 311 188 q 341 231 373 278 l 380 289 q 351 269 322 257 q 292 245 263 245 q 216 245 195 260 q 174 274 176 304 q 179 335 204 382 q 230 428 275 492 q 305 535 323 560 q 341 585 351 600 q 361 614 366 621 q 371 628 377 636 q 389 650 406 660 q 423 669 437 669 l 480 669 q 494 669 496 660 q 498 650 487 636 q 480 627 450 587 q 420 547 369 475 q 337 430 316 400 q 296 369 288 350 q 280 330 284 322 q 289 313 308 313 q 335 313 365 332 q 395 350 426 380 q 458 411 490 450 q 522 490 552 531 q 580 569 600 596 q 619 624 623 629 q 627 635 631 642 q 635 648 642 654 q 648 659 658 663 q 668 667 685 667 l 724 667 q 738 667 740 658 q 743 648 732 634 q 729 631 713 608 q 697 586 673 553 q 649 520 621 480 q 593 441 567 404 q 541 366 520 336 q 498 305 488 290 z"},"c":{"x_min":0,"x_max":308,"ha":308,"o":"m 287 248 q 276 244 263 243 q 250 242 240 244 q 229 246 225 251 q 221 256 228 265 q 236 276 244 286 q 253 297 246 304 q 224 297 202 278 q 181 259 163 235 q 145 211 132 184 q 119 157 114 134 q 109 110 114 92 q 120 75 138 70 q 158 64 190 78 q 222 92 260 118 q 297 144 336 178 q 374 213 408 249 q 422 264 432 267 q 443 270 448 266 q 453 263 452 254 q 450 244 440 233 q 408 197 366 156 q 325 115 281 80 q 237 46 194 23 q 150 0 115 0 q 62 0 40 26 q 18 52 20 92 q 23 131 47 176 q 71 222 110 262 q 150 301 201 327 q 252 353 310 353 q 338 353 354 344 q 370 334 356 307 q 347 291 328 274 q 310 256 287 248 z"},"!":{"x_min":0,"x_max":171,"ha":171,"o":"m 160 55 q 160 32 144 16 q 129 0 106 0 q 83 0 67 16 q 51 32 51 55 q 51 78 67 94 q 83 109 106 109 q 129 109 144 94 q 160 78 160 55 z m 181 233 q 189 249 204 276 q 219 302 237 333 q 255 364 274 398 q 294 432 311 462 q 328 492 342 516 q 355 539 361 551 q 370 568 394 578 q 417 588 438 590 q 460 591 472 584 q 485 576 472 558 q 464 547 446 522 q 427 498 404 466 q 380 433 353 398 q 326 362 301 328 q 276 295 256 268 q 235 242 225 228 q 210 208 198 202 q 187 196 181 198 q 175 201 174 211 q 174 221 181 233 z"},"/":{"x_min":0,"x_max":438,"ha":438,"o":"m 141 32 q 124 17 105 8 q 86 -2 72 -2 l 43 -2 q 29 -2 30 8 q 30 18 46 32 l 499 492 q 516 507 536 516 q 555 526 569 526 l 598 526 q 612 526 611 516 q 610 506 595 492 z"},"[":{"x_min":0,"x_max":382,"ha":382,"o":"m 436 498 q 448 513 460 520 q 473 527 486 528 q 500 530 516 529 q 531 528 549 528 q 582 528 609 519 q 636 510 650 499 q 665 488 665 479 q 665 470 645 470 l 512 470 q 493 444 459 396 q 425 347 382 284 q 338 221 288 146 q 239 71 190 -8 q 199 -8 212 -8 q 226 -7 234 -7 q 267 -7 291 -16 q 315 -25 326 -36 q 336 -46 333 -55 q 330 -64 309 -64 q 251 -64 216 -64 q 180 -64 160 -64 q 139 -64 132 -64 q 124 -63 122 -62 q 111 -59 106 -48 q 100 -38 98 -26 q 97 -13 99 0 q 101 13 104 20 q 107 26 122 49 q 138 72 162 106 q 186 141 215 183 q 244 225 274 268 q 304 311 333 352 q 362 393 384 425 q 407 457 421 477 q 435 497 436 498 z"},"6":{"x_min":0,"x_max":907,"ha":907,"o":""},"r":{"x_min":0,"x_max":298,"ha":298,"o":"m 398 249 q 409 259 419 262 q 429 266 435 264 q 441 262 440 254 q 440 246 430 233 q 393 188 351 162 q 309 136 273 126 q 237 115 212 118 q 186 121 183 134 q 181 142 192 159 q 202 176 217 196 q 232 217 248 237 q 265 257 275 271 q 259 267 236 252 q 214 236 191 216 q 168 195 146 172 q 125 149 111 129 q 97 109 85 92 q 73 74 64 61 q 53 46 45 34 q 33 19 16 10 q -1 0 -15 0 l -44 0 q -58 0 -60 10 q -62 20 -51 34 l 150 319 q 161 334 178 343 q 195 352 209 352 l 238 352 q 252 352 254 342 q 257 333 246 319 l 211 272 q 242 299 272 318 q 302 336 326 346 q 351 356 368 357 q 386 358 393 351 q 406 337 394 312 q 382 288 361 262 q 340 236 319 213 q 298 190 294 179 q 326 190 350 207 q 373 224 398 249 z"},"2":{"x_min":0,"x_max":907,"ha":907,"o":""},"{":{"x_min":0,"x_max":382,"ha":382,"o":"m 589 498 q 541 477 504 438 q 466 399 432 360 q 398 321 364 291 q 330 261 290 259 q 309 242 310 220 q 310 197 300 171 q 290 145 274 116 q 257 88 243 60 q 229 32 221 6 q 213 -21 220 -43 q 226 -63 226 -76 q 226 -90 220 -94 q 215 -99 206 -92 q 196 -86 183 -66 q 163 -36 160 -2 q 158 33 164 67 q 170 101 181 133 q 192 165 200 190 q 208 215 208 232 q 208 249 192 253 q 180 256 179 264 q 178 271 186 278 q 193 286 208 292 q 222 298 241 300 q 267 302 292 328 q 317 354 348 388 q 380 423 421 458 q 462 492 521 510 q 560 522 584 526 q 609 529 618 526 q 628 524 621 516 q 614 509 589 498 z"},"9":{"x_min":0,"x_max":907,"ha":907,"o":""}," ":{"x_min":0,"x_max":228,"ha":228,"o":""},"I":{"x_min":0,"x_max":215,"ha":215,"o":"m 485 637 q 483 635 468 615 q 454 595 432 564 q 409 532 380 492 q 352 451 322 408 q 291 365 261 322 q 231 279 206 242 q 181 206 162 179 q 144 152 137 140 q 117 110 115 96 q 113 83 121 81 q 131 78 155 94 q 179 111 208 137 q 237 163 266 194 q 295 224 315 249 q 329 265 338 270 q 348 274 352 270 q 357 265 356 255 q 355 245 347 233 q 340 223 324 203 q 307 183 284 158 q 262 134 235 108 q 208 82 180 60 q 153 37 126 21 q 100 5 78 1 q 49 -5 33 4 q 17 13 12 32 q 8 50 14 76 q 20 101 36 129 q 42 139 60 166 q 77 192 102 228 q 127 264 157 308 q 187 351 218 396 q 249 440 278 482 q 308 523 332 556 q 355 590 370 612 q 386 633 389 637 q 366 637 355 642 q 344 648 342 654 q 341 660 349 666 q 357 671 373 671 l 478 671 q 492 671 494 661 q 496 651 485 637 z"},"H":{"x_min":0,"x_max":728,"ha":728,"o":"m 401 323 q 418 347 440 378 q 462 408 485 440 q 508 473 531 504 q 554 535 572 560 q 591 586 604 604 q 616 621 619 625 q 630 640 644 652 q 659 664 686 664 l 726 664 q 740 664 742 654 q 744 644 733 630 q 731 627 718 610 q 706 593 688 567 q 669 541 646 508 q 622 476 598 442 q 575 409 553 378 q 531 347 514 323 l 567 323 q 602 323 626 314 q 649 304 659 293 q 697 347 738 406 q 779 465 814 514 q 850 564 874 598 q 898 632 902 637 q 913 652 930 662 q 948 671 962 671 l 990 671 q 1004 671 1006 661 q 1009 651 998 637 q 995 634 971 600 q 947 567 912 517 q 876 467 834 408 q 792 349 754 294 q 717 240 688 198 q 659 156 649 140 q 630 110 628 96 q 626 83 634 81 q 644 78 668 94 q 692 111 720 137 q 749 163 778 194 q 807 224 828 249 q 841 265 850 270 q 860 274 864 270 q 869 265 868 255 q 867 245 859 233 q 852 223 836 203 q 819 183 796 158 q 774 134 748 108 q 721 82 694 60 q 666 37 640 21 q 613 5 591 1 q 562 -5 546 4 q 530 13 526 32 q 521 50 527 76 q 533 101 548 129 q 556 141 580 178 q 605 216 640 266 l 476 266 q 429 197 387 146 q 345 96 302 63 q 258 30 210 14 q 162 -2 105 -2 q 76 -2 54 8 q 31 19 17 36 q 9 45 10 55 q 11 65 19 64 q 24 63 33 59 q 42 55 54 50 q 65 46 80 42 q 94 39 111 39 q 147 39 180 57 q 212 75 242 106 q 273 137 302 178 q 332 220 362 266 l 335 266 q 309 266 290 275 q 272 284 264 294 q 256 305 259 314 q 262 323 280 323 z"},"4":{"x_min":0,"x_max":907,"ha":907,"o":""},"~":{"x_min":0,"x_max":385,"ha":385,"o":"m 162 214 q 193 239 214 246 q 234 252 249 248 q 264 244 276 234 q 288 224 302 216 q 315 208 332 206 q 350 205 376 218 q 396 228 410 230 q 423 233 426 227 q 428 221 419 208 q 410 195 385 176 q 347 146 322 138 q 296 129 278 132 q 261 136 248 146 q 235 157 222 166 q 208 174 192 176 q 177 177 153 162 q 142 155 132 154 q 123 153 120 159 q 118 165 127 178 q 136 192 162 214 z"},"D":{"x_min":0,"x_max":834,"ha":834,"o":"m 717 673 q 796 671 844 641 q 892 611 913 564 q 934 516 930 456 q 925 396 898 334 q 872 271 826 211 q 779 151 716 104 q 652 58 574 30 q 496 1 406 1 q 352 1 324 16 q 295 32 281 49 q 242 23 200 10 q 157 -2 106 -2 q 76 -2 54 8 q 31 19 17 36 q 10 45 10 55 q 11 65 19 64 q 25 63 34 59 q 42 55 54 50 q 66 46 80 42 q 95 39 112 39 q 149 39 182 58 q 215 77 246 109 q 277 141 307 184 q 337 227 369 274 q 377 287 394 310 q 410 334 430 362 q 451 391 472 422 q 494 452 512 478 q 531 503 544 522 q 557 540 561 545 q 572 559 588 572 q 603 585 634 593 q 651 598 661 600 q 671 602 682 604 q 693 607 697 596 q 701 584 690 570 q 688 567 675 550 q 662 532 643 506 q 624 479 602 447 q 580 415 558 384 q 537 354 518 328 q 500 301 490 286 q 442 214 400 162 q 358 109 314 73 q 329 63 350 56 q 372 48 400 48 q 453 48 508 73 q 562 98 612 139 q 663 180 706 232 q 750 285 782 340 q 813 395 830 448 q 847 500 843 541 q 839 582 812 607 q 786 632 731 632 q 660 632 618 620 q 576 607 546 580 q 517 554 490 512 q 464 471 425 413 q 385 425 371 450 q 357 474 365 504 q 373 533 402 564 q 430 594 476 619 q 521 644 582 660 q 644 675 717 673 z"},"^":{"x_min":0,"x_max":354,"ha":354,"o":"m 353 276 q 351 281 357 298 q 363 315 370 334 q 378 353 384 370 q 391 386 390 391 q 380 383 364 364 q 348 345 330 324 q 313 303 296 284 q 280 265 269 259 q 256 251 237 250 q 218 248 203 252 q 188 255 182 262 q 175 268 187 276 q 202 286 218 304 q 235 321 254 340 q 274 360 296 378 q 318 397 345 410 q 364 419 383 422 q 402 424 416 410 q 430 397 438 362 q 446 326 444 258 q 447 250 434 248 q 422 247 405 250 q 388 254 372 260 q 356 267 353 276 z"},"0":{"x_min":0,"x_max":907,"ha":907,"o":"m 61 517 l 192 546 l 187 564 l 207 570 l 203 589 l 223 593 l 220 616 l 240 616 l 240 636 l 258 636 l 260 654 l 279 651 l 283 671 l 304 668 l 309 687 l 328 682 l 336 700 l 355 692 l 366 711 l 383 702 l 394 719 l 412 707 l 424 723 l 441 710 l 454 724 l 467 712 l 480 723 l 493 709 l 510 720 l 521 702 l 540 712 l 549 695 l 567 703 l 575 683 l 596 689 l 602 670 l 621 675 l 625 654 l 646 656 l 647 643 l 844 686 l 844 444 l 754 424 l 756 423 l 744 410 l 756 396 l 740 383 l 751 366 l 733 355 l 744 337 l 727 327 l 734 309 l 715 301 l 721 280 l 703 274 l 706 255 l 687 251 l 687 230 l 668 228 l 668 209 l 651 209 l 648 192 l 629 192 l 625 174 l 604 177 l 599 157 l 580 163 l 573 144 l 552 152 l 543 133 l 525 143 l 514 126 l 496 137 l 484 121 l 469 134 l 454 121 l 441 133 l 428 121 l 416 136 l 399 125 l 387 143 l 369 133 l 360 150 l 341 142 l 332 162 l 313 156 l 307 174 l 287 170 l 283 191 l 262 189 l 260 209 l 240 209 l 240 226 l 223 228 l 225 248 l 205 251 l 209 272 l 189 278 l 195 296 l 181 302 l 61 276 z m 595 466 l 606 477 q 605 476 605 474 q 605 469 608 466 q 610 462 615 462 q 623 462 634 470 l 644 477 q 646 479 648 480 q 649 482 651 484 l 657 490 l 657 488 q 657 487 656 486 q 656 486 656 485 l 656 482 q 655 481 655 479 q 655 477 656 474 q 658 471 660 471 l 668 471 l 671 473 l 681 479 l 705 500 l 703 494 q 701 491 701 485 l 701 482 q 703 482 703 481 q 703 480 706 480 q 707 480 711 482 q 715 483 716 485 l 727 494 q 729 494 733 498 q 737 503 741 507 l 750 517 l 750 519 q 750 520 749 520 q 747 520 745 518 l 744 516 l 733 503 q 728 500 727 497 l 720 491 l 712 487 q 712 487 711 486 q 710 486 709 487 l 714 494 q 716 498 718 500 l 721 506 q 723 507 725 511 l 756 556 q 761 561 762 564 l 788 593 q 793 598 796 603 q 800 608 804 613 l 809 622 l 809 626 q 808 627 805 627 q 803 627 798 625 q 793 623 789 619 l 785 616 l 766 598 q 761 593 758 589 q 755 585 750 577 l 724 535 l 711 511 l 703 504 q 701 501 699 499 q 697 497 694 494 l 685 486 l 677 480 q 677 480 675 479 l 673 477 l 668 477 l 674 487 q 674 489 678 494 q 682 500 684 502 l 692 516 l 703 532 l 707 538 q 705 538 708 540 q 711 542 711 543 q 711 546 708 546 l 698 541 l 682 529 q 682 538 672 538 q 669 538 664 536 q 660 535 657 533 l 645 527 l 636 519 q 625 511 618 501 q 611 491 608 482 l 606 482 l 598 473 q 593 469 588 464 q 582 459 576 459 l 575 459 q 574 459 574 460 l 575 461 l 581 470 l 597 490 q 599 493 602 496 q 604 500 606 504 l 610 512 q 611 514 611 517 q 611 525 607 525 q 604 525 603 524 l 591 518 l 581 510 q 577 506 575 506 l 565 495 q 563 493 560 490 q 558 488 556 486 l 546 475 l 547 477 l 572 512 q 572 513 574 515 q 575 517 575 519 l 572 522 q 571 522 570 522 q 570 523 569 523 q 568 523 567 522 q 566 522 564 522 l 557 517 q 555 516 555 515 q 555 514 554 513 l 514 445 q 513 444 513 443 l 513 442 q 514 442 514 442 q 515 441 516 441 q 518 441 520 442 l 524 444 q 524 448 528 448 l 530 451 q 530 453 532 453 l 550 474 l 569 494 l 588 512 l 599 518 q 600 518 600 517 l 597 515 q 596 512 593 511 l 585 501 q 583 499 582 498 q 581 496 579 494 l 565 473 l 562 464 q 561 462 561 459 q 561 453 566 453 l 575 453 q 577 454 580 456 q 582 457 586 459 z m 397 418 q 406 418 414 426 q 423 433 428 438 l 432 447 q 435 451 435 456 l 435 464 q 435 467 433 471 l 430 479 l 427 482 q 427 484 426 486 q 424 487 424 488 l 424 493 l 420 493 q 418 491 418 491 l 412 487 l 409 480 l 391 455 l 386 447 l 385 446 q 384 446 383 445 l 378 437 l 360 418 l 354 415 q 352 413 348 413 l 348 414 l 355 424 l 362 433 l 371 447 l 373 454 q 374 457 374 461 q 373 462 373 465 l 372 467 q 372 469 371 470 l 371 481 l 374 486 l 374 488 q 374 489 372 491 q 371 493 369 493 q 364 493 356 488 q 349 484 349 477 q 349 473 350 471 l 352 470 q 352 470 354 468 l 348 462 l 327 436 q 325 436 325 434 l 324 432 q 324 431 323 431 l 318 424 q 310 417 303 412 q 296 406 288 402 l 278 398 q 274 396 272 396 q 265 396 265 402 q 265 403 267 407 l 273 419 q 275 418 279 418 l 288 418 q 293 420 298 423 q 304 426 313 431 l 320 439 q 322 441 324 443 q 325 445 325 447 l 329 453 q 329 461 323 465 l 314 465 q 312 465 310 465 q 307 465 305 463 l 295 459 q 279 451 266 438 q 253 426 249 409 l 249 401 q 252 391 262 391 q 272 391 285 396 q 298 402 309 413 l 328 430 q 328 431 330 432 q 331 434 331 435 l 333 438 l 348 456 q 351 458 353 461 q 355 464 357 466 l 362 462 q 362 461 363 460 l 363 459 q 363 458 362 457 q 361 456 360 454 l 352 446 l 339 427 l 337 418 q 336 417 336 414 l 338 407 l 342 407 q 347 407 350 408 l 358 413 q 362 417 367 422 q 372 427 377 430 l 385 441 l 389 446 q 391 448 391 448 l 407 471 q 407 466 408 462 q 410 459 410 457 l 412 453 q 404 451 400 447 l 390 440 q 387 435 385 432 q 383 428 383 423 q 383 420 388 418 z m 447 440 q 447 436 449 436 l 454 432 q 455 432 456 432 q 457 431 458 431 l 459 432 l 465 432 q 469 433 472 434 q 475 435 478 436 l 491 443 l 511 461 l 518 471 l 526 488 q 526 489 526 490 q 527 491 527 492 q 527 490 526 498 q 525 505 511 505 q 508 505 504 504 q 501 503 496 501 l 490 499 l 467 482 l 453 464 q 448 456 447 451 z m 125 8 q 119 13 117 21 q 115 29 115 37 l 115 45 q 115 59 126 68 q 138 76 151 76 l 154 76 q 168 76 177 66 q 186 57 184 52 l 168 52 q 167 57 162 60 q 157 63 152 63 l 145 63 l 138 57 q 133 55 132 49 q 131 43 131 36 q 131 11 149 11 l 151 11 q 157 11 164 15 q 170 19 170 27 l 152 27 l 152 40 l 184 40 l 184 -1 l 174 -1 l 172 9 q 164 -3 147 -3 q 141 -3 134 0 q 128 3 125 8 z m 213 -69 q 219 -55 232 -55 q 237 -55 241 -57 q 245 -59 247 -64 l 248 -56 l 260 -56 l 260 -105 q 260 -115 255 -122 q 250 -128 234 -128 q 225 -128 219 -124 q 213 -121 213 -113 l 226 -113 l 229 -117 q 230 -118 235 -118 q 246 -118 246 -114 q 247 -109 247 -110 l 247 -101 q 241 -108 233 -108 q 226 -108 218 -103 q 210 -98 210 -81 q 210 -78 211 -75 q 212 -72 213 -69 z m 578 49 q 586 41 586 27 q 586 19 580 8 q 575 -2 558 -2 q 544 -2 536 6 q 529 14 529 27 q 529 29 530 34 q 530 39 533 44 q 536 49 542 52 q 547 56 558 56 q 563 56 570 54 q 576 53 578 49 z m 357 -56 l 369 -56 l 369 -64 l 371 -64 q 372 -64 373 -63 l 381 -56 q 382 -55 385 -55 q 391 -55 399 -61 q 407 -67 407 -82 q 407 -93 400 -101 q 393 -109 385 -109 q 380 -109 378 -108 l 374 -105 q 373 -104 372 -104 q 370 -104 370 -102 l 370 -127 l 357 -127 z m 799 -56 l 812 -56 l 812 -64 q 816 -55 827 -55 q 836 -55 841 -63 q 844 -55 854 -55 q 872 -55 872 -73 l 872 -108 l 859 -108 l 859 -77 q 859 -66 851 -66 q 842 -66 842 -77 l 842 -108 l 829 -108 l 829 -72 q 829 -69 826 -68 q 823 -66 820 -66 q 812 -66 812 -77 l 812 -108 l 799 -108 z m 739 -72 q 745 -55 764 -55 q 772 -55 780 -60 q 789 -66 789 -82 q 789 -93 784 -101 q 778 -109 764 -109 q 738 -109 738 -82 q 738 -76 739 -72 z m 124 345 l 129 350 l 138 360 q 140 364 142 366 l 173 408 l 192 438 q 195 442 198 446 q 200 449 202 453 l 210 469 q 210 470 210 470 q 211 470 211 471 q 211 473 208 473 q 204 473 203 472 l 199 470 l 183 450 q 180 447 176 441 l 168 431 l 128 372 l 115 348 l 115 343 l 120 343 z m 744 -1 q 741 -1 740 -2 q 738 -2 736 -2 q 732 -2 726 0 q 719 3 719 15 q 719 24 724 27 q 729 30 735 32 l 748 34 q 753 34 753 38 q 753 45 744 45 q 735 45 734 36 l 721 36 q 721 43 725 50 q 729 56 738 56 l 744 56 q 755 56 761 53 q 767 50 767 40 l 767 5 q 767 2 771 2 l 771 -1 l 755 -1 q 754 -1 754 0 l 754 1 l 754 2 q 754 4 754 4 q 753 5 753 6 l 749 2 q 748 1 748 1 q 747 1 746 0 q 745 -1 744 -1 z m 245 22 l 207 22 q 207 18 210 14 q 213 10 220 10 q 225 10 228 12 q 230 14 230 16 l 245 16 l 240 6 l 232 0 q 228 -1 226 -2 q 224 -2 220 -2 q 193 -2 193 28 q 193 44 201 50 q 209 56 220 56 q 235 56 240 46 q 245 37 245 26 z m 494 317 q 497 321 497 329 q 497 337 490 345 q 483 353 470 353 q 456 353 449 345 q 442 337 442 329 q 442 315 452 310 q 463 305 470 305 q 480 305 484 308 q 489 312 494 317 z m 135 442 q 134 440 134 437 q 134 432 140 428 l 149 425 q 151 425 157 426 q 163 426 163 429 q 163 430 162 430 l 160 430 q 158 430 156 429 q 155 428 153 428 q 138 428 138 439 q 138 442 139 445 q 145 456 164 468 q 182 479 199 486 l 213 488 q 221 490 226 490 q 228 490 235 488 q 242 487 244 485 l 249 479 l 249 471 q 249 465 248 461 l 243 452 q 238 445 232 438 q 227 430 216 423 l 205 416 l 186 408 q 185 408 184 408 q 182 407 180 407 l 178 407 q 177 407 174 406 q 172 405 172 403 q 172 402 173 402 l 175 402 q 177 402 178 403 l 193 407 l 219 418 l 243 434 l 261 453 q 266 461 268 467 q 270 473 270 477 q 270 478 270 478 q 269 479 269 481 l 266 488 l 259 493 q 248 496 238 496 q 215 496 188 484 q 160 473 139 452 z m 502 -83 q 507 -78 512 -78 l 524 -76 q 528 -76 528 -73 q 528 -65 521 -65 q 517 -65 514 -68 q 512 -71 512 -73 l 499 -73 q 499 -60 508 -58 q 517 -55 521 -55 q 542 -55 542 -70 l 542 -97 q 542 -102 542 -103 q 543 -104 545 -106 l 545 -108 l 530 -107 q 530 -106 530 -106 q 529 -106 529 -105 l 529 -102 q 522 -105 520 -107 q 519 -109 513 -109 q 509 -109 506 -108 l 499 -103 q 497 -99 497 -94 q 497 -86 502 -83 z m 38 -83 q 43 -78 48 -78 l 61 -76 q 66 -76 66 -73 q 66 -65 58 -65 q 53 -65 50 -68 q 48 -71 48 -73 l 36 -73 q 36 -61 44 -58 q 51 -55 58 -55 q 72 -55 75 -60 q 78 -65 78 -70 l 78 -97 q 78 -102 78 -103 q 79 -104 81 -106 l 81 -108 l 67 -108 l 67 -105 q 66 -104 66 -102 l 62 -106 q 58 -108 56 -108 q 53 -109 51 -109 q 45 -109 40 -106 q 34 -103 34 -94 q 34 -86 38 -83 z m 414 -69 q 420 -55 435 -55 q 460 -55 460 -83 l 460 -86 l 425 -86 q 425 -98 436 -98 q 439 -98 443 -96 l 446 -92 l 459 -92 q 457 -103 451 -106 q 445 -109 436 -109 q 412 -109 412 -81 q 412 -73 414 -69 z m 606 -69 q 612 -55 628 -55 q 641 -55 646 -64 q 652 -72 652 -83 l 652 -86 l 617 -86 q 617 -98 628 -98 q 631 -98 635 -96 l 638 -92 l 651 -92 q 646 -109 628 -109 q 604 -109 604 -81 q 604 -77 606 -69 z m 644 48 q 646 42 646 38 l 646 -1 l 632 -1 l 632 33 q 632 44 622 44 q 611 44 611 31 l 611 -1 l 596 -1 l 596 55 l 610 55 l 610 47 q 616 56 627 56 q 634 56 637 54 z m 389 7 q 385 2 380 0 q 375 -2 372 -2 q 353 -2 353 18 l 353 55 l 367 55 l 367 21 q 367 11 377 11 l 382 11 l 387 16 q 387 17 388 18 q 389 20 389 22 l 389 55 l 402 55 l 402 -1 l 389 -1 z m 299 -60 l 298 -56 l 314 -56 l 324 -94 l 334 -56 l 349 -56 l 331 -107 l 324 -124 q 320 -128 312 -128 l 305 -128 l 305 -117 l 313 -117 q 314 -117 316 -115 l 316 -113 q 317 -112 317 -110 z m 155 -56 l 167 -56 l 167 -64 q 173 -55 183 -55 q 189 -55 195 -58 q 201 -62 201 -73 l 201 -108 l 187 -108 l 187 -77 q 187 -72 186 -69 q 184 -66 178 -66 q 172 -66 170 -70 q 168 -74 168 -78 l 168 -108 l 155 -108 z m 689 -63 q 695 -55 708 -55 q 716 -55 724 -60 q 732 -65 732 -75 l 718 -75 l 715 -69 q 712 -66 709 -66 q 705 -66 702 -70 q 698 -74 698 -81 q 698 -97 708 -97 q 717 -97 717 -89 l 732 -89 q 730 -97 725 -103 q 720 -109 708 -109 q 699 -109 692 -104 q 684 -98 684 -83 q 684 -75 689 -63 z m 556 -63 q 562 -55 575 -55 q 584 -55 592 -61 q 599 -67 599 -75 l 584 -75 q 584 -73 582 -70 q 581 -66 576 -66 q 571 -66 568 -70 q 564 -75 564 -81 q 564 -84 564 -86 q 565 -88 565 -90 l 569 -95 q 571 -97 575 -97 q 577 -97 580 -96 q 584 -94 584 -89 l 597 -89 q 597 -98 590 -104 q 584 -109 575 -109 q 565 -109 558 -103 q 551 -97 551 -83 q 551 -75 556 -63 z m 337 63 q 335 63 335 61 l 335 55 l 344 55 l 344 45 l 335 45 l 335 -1 l 320 -1 l 320 45 l 313 45 l 313 55 l 320 55 l 320 59 q 320 75 337 75 l 344 75 l 344 63 z m 515 55 l 525 55 l 525 45 l 515 45 l 515 -1 l 500 -1 l 500 45 l 493 45 l 493 55 l 500 55 l 500 59 q 500 75 517 75 l 523 75 l 523 63 l 517 63 q 516 63 515 61 z m 806 -1 l 797 -1 q 793 -1 787 0 q 781 2 781 11 l 781 45 l 774 45 l 774 55 l 781 55 l 781 69 l 797 69 l 797 55 l 806 55 l 806 45 l 797 45 l 797 11 q 798 11 799 10 q 800 10 802 10 l 806 11 z m 272 69 l 272 55 l 280 55 l 280 45 l 272 45 l 272 15 q 272 12 272 11 q 273 10 278 10 l 279 11 l 280 -1 l 272 -1 q 267 -1 262 0 q 257 1 257 11 l 257 45 l 249 45 l 249 55 l 257 55 l 257 69 z m 461 436 q 459 436 459 437 l 459 443 q 461 450 464 453 l 471 464 l 488 485 q 490 487 492 490 q 495 492 497 494 l 506 500 q 508 501 511 501 q 514 501 514 496 q 514 495 512 491 l 507 482 l 494 462 l 476 443 q 474 441 472 440 q 470 438 468 438 q 467 437 465 436 z m 623 478 l 627 483 l 634 494 l 656 522 l 667 532 q 668 533 671 534 q 674 534 675 534 l 678 532 q 678 531 678 530 q 679 530 679 529 q 679 525 676 522 l 662 500 l 654 493 l 641 480 l 630 471 q 628 471 626 469 q 623 467 621 467 l 620 468 l 619 468 q 618 469 618 470 q 619 470 619 471 q 619 472 620 473 z m 685 -1 l 675 -1 q 663 -1 662 5 l 662 45 l 653 45 l 653 55 l 662 55 l 662 69 l 675 69 l 675 55 l 685 55 l 685 45 l 675 45 l 675 15 q 675 10 681 10 l 685 11 z m 482 345 q 482 342 484 340 q 486 337 486 329 q 486 322 484 314 q 481 307 470 307 q 459 307 458 313 l 455 319 q 453 325 453 329 q 453 331 454 333 q 454 335 454 337 l 460 348 q 461 349 464 350 q 467 352 471 352 q 471 351 472 351 l 474 351 z m 471 -66 l 463 -66 l 463 -56 l 471 -56 l 471 -52 q 471 -38 486 -38 l 492 -38 l 492 -49 l 486 -49 q 485 -50 485 -50 l 484 -56 l 493 -56 l 493 -66 l 484 -66 l 484 -108 l 471 -108 z m 273 -66 l 266 -66 l 266 -56 l 273 -56 l 273 -43 l 287 -43 l 287 -56 l 295 -56 l 295 -66 l 287 -66 l 287 -93 q 287 -95 287 -96 q 287 -98 292 -98 l 295 -97 l 295 -108 l 287 -108 q 273 -108 273 -97 z m 430 -1 l 416 -1 l 416 75 l 430 75 z m 455 -1 l 441 -1 l 441 75 l 455 75 z m 412 352 l 362 352 l 362 350 l 364 350 q 372 350 372 343 l 372 315 q 372 307 364 307 l 362 306 l 412 306 l 412 325 l 404 312 q 401 309 400 309 l 395 308 q 393 307 389 307 l 382 307 l 383 327 q 387 327 392 324 l 394 321 q 394 320 394 320 q 395 319 395 318 l 395 314 l 395 343 l 393 334 q 388 329 384 329 l 382 329 l 382 350 l 390 350 q 398 350 401 349 l 405 346 l 410 334 l 412 334 z m 91 -56 l 103 -56 l 104 -65 l 107 -60 q 109 -58 110 -56 q 110 -55 118 -55 l 121 -55 l 121 -69 l 117 -69 q 104 -69 104 -81 l 104 -108 l 91 -108 z m 567 352 l 544 352 l 544 350 l 548 350 l 551 347 q 555 343 555 338 l 555 319 l 523 352 l 505 352 l 505 350 q 511 350 512 348 q 514 346 514 343 l 514 317 q 514 314 513 312 l 510 308 q 508 308 506 308 q 505 307 504 307 l 504 306 l 528 307 q 525 307 523 308 l 519 308 l 517 313 q 516 314 516 319 l 516 346 l 555 306 l 557 306 l 557 338 q 557 343 558 346 q 559 350 567 350 z m 354 327 q 353 329 348 331 l 340 334 l 334 335 q 332 335 324 338 q 317 340 319 343 l 319 347 q 319 346 320 349 q 322 352 330 352 q 341 352 344 348 q 348 343 353 336 l 354 336 l 353 351 q 352 348 349 348 l 345 348 q 337 353 330 353 q 326 353 320 351 l 314 347 q 313 345 312 344 q 312 342 312 339 q 312 337 314 334 q 315 331 317 331 l 323 328 q 324 327 333 325 l 337 324 q 339 323 345 322 q 351 320 351 314 q 351 313 350 310 q 348 308 345 307 l 340 307 q 335 307 332 308 l 324 311 l 319 316 q 314 321 314 326 l 313 326 l 314 305 q 314 307 316 308 q 318 310 320 310 q 321 310 322 309 q 324 308 326 308 l 333 306 q 335 305 340 305 q 347 305 350 308 q 352 312 357 314 l 357 324 z m 568 16 q 571 19 571 27 q 571 34 568 39 q 565 44 558 44 q 544 44 544 27 q 544 17 548 14 q 552 11 558 11 q 566 11 568 16 z m 128 -56 l 142 -56 l 142 -108 l 128 -108 z m 675 348 q 675 348 677 349 q 678 349 680 350 l 680 352 l 657 352 l 657 350 l 660 350 q 667 350 667 346 q 667 344 664 341 l 655 328 l 643 343 q 641 347 641 347 l 641 348 q 641 350 645 350 l 649 350 l 649 352 l 619 352 l 620 350 q 623 350 626 350 q 629 349 631 344 l 645 325 l 645 315 q 645 307 637 307 l 634 306 l 667 306 l 663 307 q 655 307 655 315 l 655 326 l 669 346 q 673 348 674 348 z m 622 326 l 621 326 q 619 324 618 321 q 616 318 616 316 l 614 313 q 611 310 609 308 q 607 307 601 307 l 589 307 l 589 343 q 589 350 598 350 l 601 350 l 601 352 l 570 352 l 570 350 l 572 350 q 580 350 580 343 l 580 315 q 580 307 572 307 l 570 306 l 622 306 z m 773 -71 q 771 -66 764 -66 q 756 -66 754 -71 q 751 -76 751 -82 q 751 -88 754 -92 q 756 -97 764 -97 q 772 -97 774 -92 q 776 -87 776 -82 q 776 -76 773 -71 z m 289 425 q 286 424 283 424 q 278 424 277 425 l 284 436 l 296 450 l 306 459 l 312 461 q 313 461 314 462 q 314 462 316 462 q 317 462 318 462 q 318 461 319 461 l 319 456 l 316 452 q 312 448 310 442 q 308 437 300 433 z m 373 -93 q 376 -97 381 -97 q 392 -97 392 -82 q 392 -77 390 -72 q 388 -66 381 -66 q 369 -66 369 -83 q 369 -90 373 -93 z m 292 310 q 296 313 296 319 q 294 314 291 311 l 285 307 l 278 307 q 273 307 268 308 q 262 310 262 319 l 262 343 q 262 348 265 349 q 268 350 271 350 l 274 350 l 274 352 l 243 352 l 243 350 q 253 350 253 343 l 253 319 q 253 315 258 308 l 266 306 q 268 305 275 305 q 287 305 292 310 z m 226 -89 q 226 -93 230 -94 q 233 -96 235 -96 q 247 -96 247 -82 q 247 -77 244 -72 q 240 -66 235 -66 q 225 -66 225 -82 q 225 -86 226 -89 z m 412 451 q 412 449 412 448 q 413 447 413 446 q 412 444 412 442 l 412 436 l 410 432 l 402 424 q 400 424 397 422 q 394 421 392 421 q 388 421 387 424 l 387 428 l 392 437 q 396 442 401 446 z m 733 15 q 733 11 736 10 q 738 9 740 9 l 746 10 q 753 13 753 20 l 753 27 q 750 24 747 24 l 740 22 q 733 22 733 15 z m 660 -93 l 675 -93 l 675 -108 l 660 -108 z m 61 -85 l 56 -86 q 47 -88 47 -93 q 47 -95 50 -98 q 52 -100 54 -100 q 55 -100 56 -100 q 58 -99 64 -95 q 66 -91 66 -89 l 66 -83 q 65 -83 61 -85 z m 231 33 q 229 37 227 41 q 225 45 220 45 q 209 45 209 33 z m 524 -85 l 517 -86 q 511 -86 511 -93 q 511 -100 517 -100 q 519 -100 520 -98 l 527 -95 q 528 -93 528 -89 l 528 -83 q 528 -83 524 -85 z m 638 -77 q 638 -73 636 -70 q 633 -66 627 -66 q 619 -66 617 -77 z m 446 -77 q 446 -73 444 -70 q 441 -66 435 -66 q 427 -66 425 -77 z m 128 -38 l 142 -38 l 142 -50 l 128 -50 z m 769 575 q 767 571 765 570 l 779 588 l 785 599 l 798 616 q 798 617 800 618 q 801 619 802 620 q 802 616 801 615 l 797 610 l 791 601 l 774 581 z m 306 352 l 283 352 l 283 350 l 288 350 q 292 350 294 346 q 296 342 296 338 l 296 345 l 301 349 q 301 349 302 350 l 306 350 z"},"F":{"x_min":0,"x_max":620,"ha":620,"o":"m 337 362 q 290 362 260 385 q 231 408 220 442 q 210 477 220 517 q 230 557 262 592 q 295 626 350 649 q 405 672 486 672 l 1100 672 q 1115 672 1120 664 q 1125 657 1122 645 q 1119 633 1110 620 q 1101 607 1088 595 q 1076 583 1062 576 q 1047 568 1033 568 q 1020 568 988 571 q 956 574 912 580 q 869 585 818 591 q 766 597 714 603 q 697 580 670 543 q 644 506 615 464 q 586 423 558 384 q 529 344 510 316 l 564 316 q 597 316 620 307 q 644 298 655 288 q 666 277 662 268 q 659 259 639 259 l 472 259 q 427 192 385 143 q 343 94 300 62 q 257 29 210 14 q 162 -2 106 -2 q 47 -2 17 36 q 10 45 10 54 q 11 64 19 64 q 25 63 34 59 q 42 55 54 50 q 66 46 80 42 q 95 39 112 39 q 148 39 180 58 q 213 76 244 108 q 274 139 304 180 q 334 222 365 269 q 352 275 344 283 q 337 291 336 298 q 334 306 339 311 q 344 316 357 316 l 398 316 q 420 348 452 392 q 483 436 514 480 q 545 524 572 560 q 598 597 610 614 q 572 618 540 620 q 508 622 486 622 q 434 622 400 610 q 365 597 346 578 q 328 559 324 536 q 321 514 332 495 q 342 476 365 464 q 388 451 422 451 q 441 451 440 437 q 439 423 425 406 q 411 390 388 376 q 364 362 337 362 z"},"`":{"x_min":0,"x_max":309,"ha":309,"o":"m 364 486 q 375 478 380 470 q 386 461 382 456 q 379 450 366 448 q 354 447 329 455 q 279 470 228 482 q 178 494 137 502 q 114 506 112 518 q 109 531 119 544 q 129 557 148 565 q 166 573 184 568 q 228 557 277 534 q 326 510 364 486 z"},"k":{"x_min":0,"x_max":386,"ha":386,"o":"m 284 76 q 299 74 325 92 q 351 110 380 136 q 409 163 437 194 q 465 224 486 249 q 499 265 508 270 q 518 274 522 270 q 527 265 526 255 q 525 245 517 233 q 510 223 494 202 q 478 182 456 157 q 433 132 406 106 q 380 79 353 57 q 326 35 300 20 q 273 4 251 2 q 225 -1 206 15 q 186 31 172 56 q 158 82 150 112 q 141 141 137 165 l 45 34 q 33 19 16 10 q 0 0 -14 0 l -43 0 q -57 0 -60 10 q -62 20 -51 34 l 372 638 q 383 653 400 662 q 417 672 431 672 l 460 672 q 474 672 476 662 q 479 652 468 638 l 180 227 q 210 232 236 248 q 263 263 284 280 q 306 298 322 314 q 337 330 344 336 q 351 343 358 346 q 364 349 370 350 q 377 352 386 352 q 395 352 409 352 q 422 352 435 351 q 448 350 454 346 q 460 342 456 332 q 453 323 433 307 q 413 291 387 273 q 361 255 334 238 q 306 222 278 208 q 251 195 227 189 q 229 174 234 154 q 238 135 244 118 q 251 101 261 89 q 271 77 284 76 z"},"u":{"x_min":0,"x_max":397,"ha":397,"o":"m 246 319 q 242 314 228 295 q 213 276 194 250 q 176 223 156 194 q 136 166 121 142 q 102 112 100 98 q 98 85 106 83 q 116 80 139 96 q 162 111 190 136 q 218 162 246 192 q 275 222 296 247 q 314 273 329 292 q 344 312 349 319 q 361 334 378 343 q 395 352 409 352 l 437 352 q 451 352 454 342 q 456 333 445 319 q 441 314 426 295 q 412 276 393 250 q 374 223 354 194 q 334 166 320 142 q 301 112 299 98 q 297 85 304 83 q 314 80 338 96 q 362 112 390 138 q 419 164 448 194 q 477 224 497 249 q 510 265 520 270 q 529 274 534 270 q 538 265 537 255 q 536 245 529 233 q 522 223 506 203 q 490 183 468 159 q 445 135 418 109 q 391 83 364 61 q 336 39 310 22 q 284 6 262 2 q 238 -3 222 3 q 207 9 200 22 q 193 35 194 54 q 194 72 202 94 q 166 60 129 34 q 92 8 63 2 q 34 -4 16 4 q -1 12 -6 30 q -12 47 -6 73 q 1 99 20 130 q 32 150 52 180 q 71 209 91 238 q 111 266 128 289 q 144 312 150 319 q 162 334 179 343 q 196 352 210 352 l 239 352 q 253 352 255 342 q 257 333 246 319 z"},"]":{"x_min":0,"x_max":386,"ha":386,"o":"m 170 -23 q 158 -38 146 -45 q 133 -52 120 -54 q 106 -55 91 -54 q 76 -53 58 -53 q 25 -53 -2 -44 q -29 -35 -44 -24 q -58 -14 -58 -5 q -58 4 -37 4 l 96 4 q 115 30 149 78 q 183 127 226 190 q 270 254 319 328 q 368 403 418 482 q 409 483 396 482 q 382 482 373 482 q 340 482 316 491 q 292 500 282 510 q 271 521 274 530 q 277 539 298 539 q 356 539 392 539 q 427 539 447 538 q 467 538 474 538 q 482 537 484 537 q 496 534 502 524 q 507 513 508 500 q 509 488 507 475 q 505 462 502 455 q 499 449 484 426 q 468 403 444 368 q 421 334 392 292 q 362 250 332 207 q 302 164 274 123 q 245 82 222 50 q 199 18 185 -2 q 171 -22 170 -23 z"},"U":{"x_min":0,"x_max":488,"ha":488,"o":"m 759 636 q 757 633 732 600 q 708 566 672 516 q 637 466 596 407 q 554 348 516 294 q 478 239 449 197 q 420 155 410 139 q 392 109 390 96 q 387 83 395 81 q 405 78 429 94 q 453 110 482 136 q 510 163 539 194 q 568 224 588 249 q 602 265 612 270 q 621 274 626 270 q 630 265 629 255 q 628 245 620 233 q 613 223 597 203 q 581 183 558 158 q 536 134 509 108 q 482 81 454 58 q 427 36 401 20 q 375 4 353 0 q 325 -5 309 2 q 293 10 288 26 q 282 43 286 66 q 290 88 303 114 q 249 66 194 32 q 138 -1 88 -1 q 41 -1 24 21 q 6 43 12 82 q 19 121 48 175 q 77 229 122 293 q 142 321 166 356 q 191 392 216 428 q 242 465 266 500 q 291 535 311 564 q 331 593 344 612 q 358 631 362 636 q 373 651 390 660 q 408 670 422 670 l 464 670 q 478 670 480 660 q 483 650 472 636 q 469 633 454 612 q 439 591 416 558 q 393 526 366 487 q 338 448 310 409 q 282 370 258 334 q 233 299 216 276 q 184 231 160 193 q 136 155 124 127 q 112 99 113 83 q 114 67 133 67 q 163 67 204 92 q 245 117 289 156 q 333 195 375 242 q 417 290 450 335 l 455 341 q 490 392 526 442 q 562 493 591 535 q 620 577 640 604 q 660 632 663 636 q 675 651 692 660 q 709 670 723 670 l 751 670 q 765 670 768 660 q 770 650 759 636 z"},"o":{"x_min":0,"x_max":337,"ha":337,"o":"m 356 330 q 372 312 374 284 q 376 257 364 224 q 352 191 328 156 q 304 121 269 89 q 235 57 198 36 q 162 14 129 4 q 96 -5 68 -2 q 40 1 24 19 q 7 37 6 64 q 4 92 16 125 q 28 158 52 193 q 75 228 110 260 q 144 293 180 314 q 217 336 250 346 q 284 355 312 352 q 339 348 356 330 z m 255 154 q 274 179 287 203 q 300 227 306 248 q 312 269 310 284 q 309 300 300 307 q 290 314 274 311 q 259 308 240 296 q 222 284 202 265 q 181 246 162 221 q 143 196 130 172 q 118 148 112 128 q 106 107 108 92 q 109 76 118 69 q 128 62 144 65 q 159 68 178 80 q 196 91 216 110 q 236 129 255 154 z"},"N":{"x_min":0,"x_max":778,"ha":778,"o":"m 631 182 l 941 637 q 952 652 969 662 q 986 671 1000 671 l 1043 671 q 1057 671 1060 661 q 1062 651 1051 637 l 629 32 q 617 18 602 9 q 588 0 574 0 l 573 0 l 555 0 q 541 0 534 10 q 527 20 532 34 l 611 459 q 592 432 573 406 q 554 379 538 356 q 522 333 510 314 q 497 296 490 286 q 441 212 397 158 q 353 104 308 68 q 263 33 214 16 q 165 -2 106 -2 q 76 -2 54 8 q 31 19 17 36 q 10 45 10 55 q 11 65 19 64 q 25 63 34 59 q 42 55 54 50 q 65 46 80 42 q 94 39 111 39 q 148 39 181 58 q 214 77 245 109 q 276 141 306 184 q 337 227 368 274 q 377 287 398 318 q 420 348 447 386 q 474 424 504 466 q 534 508 560 544 q 586 579 604 604 q 621 629 625 634 q 634 646 646 656 q 658 666 678 670 q 680 671 686 671 l 704 671 q 718 671 718 660 q 718 648 716 637 z"},"+":{"x_min":0,"x_max":398,"ha":398,"o":"m 202 98 q 213 118 218 126 q 223 134 228 144 q 203 144 185 154 q 167 163 159 174 q 151 184 154 193 q 158 202 176 202 l 262 202 l 265 206 q 281 235 300 251 q 320 267 335 271 q 350 275 356 268 q 362 260 352 242 l 328 200 q 354 196 372 186 q 389 177 396 168 q 403 158 398 151 q 393 144 375 144 l 295 144 q 292 138 288 132 q 284 126 280 118 q 267 95 250 84 q 232 72 218 70 q 205 68 199 76 q 193 83 202 98 z"},"G":{"x_min":0,"x_max":458,"ha":458,"o":"m 409 318 q 394 318 386 323 q 379 328 379 334 q 379 341 388 346 q 396 351 413 351 l 497 351 q 511 351 513 342 q 515 332 504 318 q 500 313 486 294 q 471 275 452 248 q 434 222 414 194 q 394 165 379 141 q 360 110 358 97 q 356 84 364 81 q 374 78 398 94 q 421 111 450 137 q 479 163 508 194 q 537 224 558 249 q 571 265 580 270 q 590 274 594 270 q 599 265 598 255 q 597 245 589 233 q 582 223 566 203 q 549 183 526 158 q 504 134 478 108 q 451 82 424 60 q 396 37 370 21 q 343 5 321 1 q 286 -6 270 7 q 254 20 253 45 q 228 22 202 10 q 176 -2 147 1 q 89 6 56 38 q 24 70 14 118 q 5 166 18 226 q 30 286 62 348 q 93 409 143 468 q 193 526 258 572 q 324 617 404 644 q 483 672 574 672 q 588 672 600 670 q 612 668 618 663 q 625 658 626 649 q 627 640 619 627 q 611 611 592 593 q 574 575 551 567 q 540 564 527 562 q 514 561 504 563 q 494 565 490 570 q 485 575 493 584 q 497 590 502 596 q 506 601 509 606 q 512 611 513 616 q 514 620 510 623 q 439 609 378 567 q 316 525 268 468 q 221 412 188 348 q 156 285 143 229 q 130 173 138 130 q 146 88 178 75 q 204 64 232 86 q 260 109 291 151 q 305 173 323 200 q 341 226 358 250 q 375 273 389 292 q 403 310 409 318 z"},"q":{"x_min":0,"x_max":374,"ha":374,"o":"m 89 240 q 135 285 177 311 q 219 337 255 346 q 291 356 320 350 q 348 345 366 329 q 392 352 416 352 l 445 352 q 459 352 462 342 q 464 333 453 319 q 450 316 429 287 q 408 258 374 211 q 341 164 298 100 q 255 37 207 -35 l 234 -35 q 267 -35 290 -44 q 314 -53 324 -64 q 335 -74 332 -83 q 328 -92 308 -92 l 169 -92 q 147 -125 126 -160 q 104 -195 82 -230 q 74 -244 60 -241 q 47 -238 36 -226 q 25 -214 20 -196 q 16 -177 25 -159 q 29 -151 40 -134 q 52 -116 69 -92 l 1 -92 q -25 -92 -44 -83 q -62 -74 -70 -64 q -79 -53 -76 -44 q -72 -35 -54 -35 l 111 -35 q 137 0 166 38 q 196 77 225 113 q 207 95 185 76 q 163 56 139 39 q 115 22 90 11 q 65 0 43 0 q 15 0 0 19 q -15 38 -12 70 q -9 103 15 146 q 39 190 89 240 z m 137 200 q 114 173 101 146 q 88 120 88 102 q 89 85 104 82 q 118 79 150 99 q 174 114 204 142 q 233 170 260 201 q 288 232 311 260 q 334 287 345 302 q 322 315 294 309 q 265 303 236 286 q 208 269 182 246 q 155 222 137 200 z"},"d":{"x_min":0,"x_max":406,"ha":406,"o":"m 89 240 q 134 285 176 311 q 218 337 254 346 q 289 356 318 351 q 346 346 364 330 q 400 382 438 435 q 475 488 506 532 q 537 575 558 604 q 579 633 582 638 q 594 653 611 662 q 628 672 642 672 l 670 672 q 684 672 686 662 q 689 652 678 638 q 676 635 652 602 q 627 568 592 518 q 556 469 514 410 q 472 350 434 296 q 396 242 367 200 q 338 158 329 142 q 310 112 308 98 q 306 85 314 83 q 324 80 348 96 q 371 112 400 138 q 428 164 457 194 q 486 224 506 249 q 520 265 530 270 q 539 274 544 270 q 548 265 547 255 q 546 245 538 233 q 531 223 515 203 q 499 183 476 159 q 454 135 427 109 q 400 83 373 61 q 346 39 320 22 q 293 6 272 2 q 246 -3 230 4 q 214 10 208 25 q 202 40 204 60 q 206 81 216 105 q 198 87 176 68 q 155 50 132 35 q 110 20 87 10 q 64 0 43 0 q 15 0 0 19 q -16 38 -13 70 q -10 103 14 146 q 38 190 89 240 z m 136 200 q 112 173 100 146 q 87 120 88 102 q 88 85 102 82 q 117 79 148 99 q 172 114 202 142 q 232 170 260 201 q 287 232 310 260 q 333 287 344 302 q 320 315 292 309 q 263 303 234 286 q 206 269 180 246 q 154 222 136 200 z"},"1":{"x_min":0,"x_max":907,"ha":907,"o":""},"5":{"x_min":0,"x_max":907,"ha":907,"o":""}}}
